<?xml version="1.0" encoding="utf-8"?>
<!-- Generator: Adobe Illustrator 21.1.0, SVG Export Plug-In . SVG Version: 6.00 Build 0)  -->
<svg version="1.1" id="Camada_1" xmlns="http://www.w3.org/2000/svg" xmlns:xlink="http://www.w3.org/1999/xlink" x="0px" y="0px"
	 viewBox="0 0 450 450" style="enable-background:new 0 0 450 450;" xml:space="preserve">
<style type="text/css">
	.st0{fill:none;stroke:#BAD2D8;stroke-width:2;stroke-miterlimit:10;}
	.st1{fill:#FFFFFF;stroke:#687477;stroke-width:3;stroke-miterlimit:10;}
	.st2{fill:#D1E9ED;}
	.st3{fill:#687477;}
	.st4{fill:#FFFFFF;stroke:#687477;stroke-width:13.4039;stroke-miterlimit:10;}
	.st5{fill:#FFFFFF;stroke:#687477;stroke-width:12.9686;stroke-miterlimit:10;}
	.st6{fill:#FFFFFF;stroke:#687477;stroke-width:12.8259;stroke-miterlimit:10;}
	.st7{fill:#FFFFFF;stroke:#687477;stroke-width:13.4839;stroke-miterlimit:10;}
	.st8{fill:#FFFFFF;stroke:#687477;stroke-width:11.5855;stroke-miterlimit:10;}
	.st9{fill:none;}
	.st10{fill:#FFFFFF;}
</style>
<symbol  id="Novo_símbolo_1" viewBox="-17.2 -10.5 34.3 21">
	<line class="st0" x1="5.4" y1="6.5" x2="-5.4" y2="-6.5"/>
	<line class="st0" x1="-0.3" y1="9.8" x2="-16.4" y2="-9.5"/>
	<line class="st0" x1="16.4" y1="9.5" x2="0.3" y2="-9.8"/>
</symbol>
<g>
	<path class="st8" d="M450,432H8.8L229.4,33L450,432z"/>
	<polygon class="st2" points="12.4,427.7 227.3,39.3 228.9,60.3 37.4,405 273.7,427.7 	"/>
	
		<use xlink:href="#Novo_símbolo_1"  width="34.3" height="21" x="-17.2" y="-10.5" transform="matrix(3.8618 0 0 -3.8618 229.4018 349.4032)" style="overflow:visible;"/>
</g>
<g id="borda_1_">
	<g>
		<g>
			<path class="st10" d="M450,432H8.8L229.4,33L450,432z"/>
			<g>
				<g>
					
						<rect x="444.3" y="384.6" transform="matrix(0.8752 -0.4838 0.4838 0.8752 -136.7301 272.7741)" class="st9" width="31.9" height="33.5"/>
					<g>
						<g id="Novo_símbolo_408_">
							<polygon class="st3" points="466.1,379 482.3,408.3 446.3,409.1 							"/>
						</g>
					</g>
				</g>
				<g>
					
						<rect x="418.5" y="338" transform="matrix(0.8752 -0.4838 0.4838 0.8752 -117.3996 254.4916)" class="st9" width="31.9" height="33.5"/>
					<g>
						<g id="Novo_símbolo_407_">
							<polygon class="st3" points="440.3,332.4 456.5,361.7 420.5,362.5 							"/>
						</g>
					</g>
				</g>
				<g>
					
						<rect x="392.8" y="291.4" transform="matrix(0.8752 -0.4838 0.4838 0.8752 -98.0691 236.2091)" class="st9" width="31.9" height="33.5"/>
					<g>
						<g id="Novo_símbolo_406_">
							<polygon class="st3" points="414.5,285.8 430.7,315.1 394.8,315.9 							"/>
						</g>
					</g>
				</g>
				<g>
					
						<rect x="367" y="244.8" transform="matrix(0.8752 -0.4838 0.4838 0.8752 -78.7387 217.9265)" class="st9" width="31.9" height="33.5"/>
					<g>
						<g id="Novo_símbolo_405_">
							<polygon class="st3" points="388.8,239.2 405,268.5 369,269.3 							"/>
						</g>
					</g>
				</g>
				<g>
					
						<rect x="341.2" y="198.2" transform="matrix(0.8752 -0.4838 0.4838 0.8752 -59.4082 199.644)" class="st9" width="31.9" height="33.5"/>
					<g>
						<g id="Novo_símbolo_404_">
							<polygon class="st3" points="363,192.6 379.2,221.9 343.2,222.7 							"/>
						</g>
					</g>
				</g>
				<g>
					
						<rect x="315.5" y="151.6" transform="matrix(0.8752 -0.4838 0.4838 0.8752 -40.0777 181.3615)" class="st9" width="31.9" height="33.5"/>
					<g>
						<g id="Novo_símbolo_403_">
							<polygon class="st3" points="337.2,146 353.5,175.3 317.5,176.1 							"/>
						</g>
					</g>
				</g>
				<g>
					
						<rect x="289.7" y="105" transform="matrix(0.8752 -0.4838 0.4838 0.8752 -20.7472 163.0789)" class="st9" width="31.9" height="33.5"/>
					<g>
						<g id="Novo_símbolo_402_">
							<polygon class="st3" points="311.5,99.4 327.7,128.7 291.7,129.5 							"/>
						</g>
					</g>
				</g>
				<g>
					
						<rect x="263.9" y="58.4" transform="matrix(0.8752 -0.4838 0.4838 0.8752 -1.4167 144.7964)" class="st9" width="31.9" height="33.5"/>
					<g>
						<g id="Novo_símbolo_401_">
							<polygon class="st3" points="285.7,52.8 301.9,82.1 265.9,82.9 							"/>
						</g>
					</g>
				</g>
				<g>
					
						<rect x="238.2" y="11.8" transform="matrix(0.8752 -0.4838 0.4838 0.8752 17.9138 126.5138)" class="st9" width="31.9" height="33.5"/>
					<g>
						<g id="Novo_símbolo_400_">
							<polygon class="st3" points="260,6.2 276.2,35.5 240.2,36.3 							"/>
						</g>
					</g>
				</g>
				<g>
					
						<rect x="170" y="45.1" transform="matrix(0.4838 -0.8752 0.8752 0.4838 42.9942 194.9158)" class="st9" width="33.5" height="31.9"/>
					<g>
						<g id="Novo_símbolo_399_">
							<polygon class="st3" points="164.7,68 180.9,38.6 200.7,68.7 							"/>
						</g>
					</g>
				</g>
				<g>
					
						<rect x="144.2" y="91.7" transform="matrix(0.4838 -0.8752 0.8752 0.4838 -11.0864 196.4226)" class="st9" width="33.5" height="31.9"/>
					<g>
						<g id="Novo_símbolo_398_">
							<polygon class="st3" points="138.9,114.6 155.1,85.2 174.9,115.3 							"/>
						</g>
					</g>
				</g>
				<g>
					
						<rect x="118.5" y="138.3" transform="matrix(0.4838 -0.8752 0.8752 0.4838 -65.1671 197.9294)" class="st9" width="33.5" height="31.9"/>
					<g>
						<g id="Novo_símbolo_397_">
							<polygon class="st3" points="113.2,161.2 129.4,131.8 149.2,161.9 							"/>
						</g>
					</g>
				</g>
				<g>
					
						<rect x="92.7" y="184.9" transform="matrix(0.4838 -0.8752 0.8752 0.4838 -119.2478 199.4361)" class="st9" width="33.5" height="31.9"/>
					<g>
						<g id="Novo_símbolo_396_">
							<polygon class="st3" points="87.4,207.8 103.6,178.4 123.4,208.5 							"/>
						</g>
					</g>
				</g>
				<g>
					
						<rect x="66.9" y="231.5" transform="matrix(0.4838 -0.8752 0.8752 0.4838 -173.3285 200.9429)" class="st9" width="33.5" height="31.9"/>
					<g>
						<g id="Novo_símbolo_395_">
							<polygon class="st3" points="61.6,254.4 77.8,225 97.6,255.1 							"/>
						</g>
					</g>
				</g>
				<g>
					
						<rect x="41.2" y="278.1" transform="matrix(0.4838 -0.8752 0.8752 0.4838 -227.4091 202.4497)" class="st9" width="33.5" height="31.9"/>
					<g>
						<g id="Novo_símbolo_394_">
							<polygon class="st3" points="35.9,301 52.1,271.6 71.9,301.7 							"/>
						</g>
					</g>
				</g>
				<g>
					
						<rect x="15.4" y="324.7" transform="matrix(0.4838 -0.8752 0.8752 0.4838 -281.4898 203.9565)" class="st9" width="33.5" height="31.9"/>
					<g>
						<g id="Novo_símbolo_393_">
							<polygon class="st3" points="10.1,347.6 26.3,318.2 46.1,348.3 							"/>
						</g>
					</g>
				</g>
				<g>
					
						<rect x="-10.3" y="371.3" transform="matrix(0.4838 -0.8752 0.8752 0.4838 -335.5705 205.4632)" class="st9" width="33.5" height="31.9"/>
					<g>
						<g id="Novo_símbolo_392_">
							<polygon class="st3" points="-15.6,394.2 0.6,364.8 20.3,394.9 							"/>
						</g>
					</g>
				</g>
				<g>
					<rect x="7.3" y="439.8" class="st9" width="33.5" height="31.9"/>
					<g>
						<g id="Novo_símbolo_391_">
							<polygon class="st3" points="40.8,471.7 7.3,471.7 24,439.8 							"/>
						</g>
					</g>
				</g>
				<g>
					<rect x="60.5" y="439.8" class="st9" width="33.5" height="31.9"/>
					<g>
						<g id="Novo_símbolo_390_">
							<polygon class="st3" points="94,471.7 60.5,471.7 77.3,439.8 							"/>
						</g>
					</g>
				</g>
				<g>
					<rect x="113.8" y="439.8" class="st9" width="33.5" height="31.9"/>
					<g>
						<g id="Novo_símbolo_389_">
							<polygon class="st3" points="147.3,471.7 113.8,471.7 130.5,439.8 							"/>
						</g>
					</g>
				</g>
				<g>
					<rect x="167" y="439.8" class="st9" width="33.5" height="31.9"/>
					<g>
						<g id="Novo_símbolo_388_">
							<polygon class="st3" points="200.5,471.7 167,471.7 183.8,439.8 							"/>
						</g>
					</g>
				</g>
				<g>
					<rect x="220.3" y="439.8" class="st9" width="33.5" height="31.9"/>
					<g>
						<g id="Novo_símbolo_356_">
							<polygon class="st3" points="253.8,471.7 220.3,471.7 237,439.8 							"/>
						</g>
					</g>
				</g>
				<g>
					<rect x="273.5" y="439.8" class="st9" width="33.5" height="31.9"/>
					<g>
						<g id="Novo_símbolo_296_">
							<polygon class="st3" points="307,471.7 273.5,471.7 290.3,439.8 							"/>
						</g>
					</g>
				</g>
				<g>
					<rect x="326.8" y="439.8" class="st9" width="33.5" height="31.9"/>
					<g>
						<g id="Novo_símbolo_295_">
							<polygon class="st3" points="360.2,471.7 326.8,471.7 343.5,439.8 							"/>
						</g>
					</g>
				</g>
				<g>
					<rect x="380" y="439.8" class="st9" width="33.5" height="31.9"/>
					<g>
						<g id="Novo_símbolo_294_">
							<polygon class="st3" points="413.5,471.7 380,471.7 396.8,439.8 							"/>
						</g>
					</g>
				</g>
				<g>
					<rect x="433.3" y="439.8" class="st9" width="33.5" height="31.9"/>
					<g>
						<g id="Novo_símbolo_293_">
							<polygon class="st3" points="466.7,471.7 433.3,471.7 450,439.8 							"/>
						</g>
					</g>
				</g>
			</g>
		</g>
	</g>
</g>
</svg>
