<?xml version="1.0" encoding="utf-8"?>
<!-- Generator: Adobe Illustrator 21.1.0, SVG Export Plug-In . SVG Version: 6.00 Build 0)  -->
<svg version="1.1" id="Camada_1" xmlns="http://www.w3.org/2000/svg" xmlns:xlink="http://www.w3.org/1999/xlink" x="0px" y="0px"
	 viewBox="0 0 450 450" style="enable-background:new 0 0 450 450;" xml:space="preserve">
<style type="text/css">
	.st0{fill:none;stroke:#BAD2D8;stroke-width:2;stroke-miterlimit:10;}
	.st1{fill:#FFFFFF;stroke:#687477;stroke-width:3;stroke-miterlimit:10;}
	.st2{fill:#D1E9ED;}
	.st3{fill:#687477;}
	.st4{fill:#FFFFFF;stroke:#687477;stroke-width:13.4039;stroke-miterlimit:10;}
	.st5{fill:#FFFFFF;stroke:#687477;stroke-width:12.9686;stroke-miterlimit:10;}
	.st6{fill:#FFFFFF;stroke:#687477;stroke-width:12.8259;stroke-miterlimit:10;}
	.st7{fill:#FFFFFF;stroke:#687477;stroke-width:13.4839;stroke-miterlimit:10;}
	.st8{fill:#FFFFFF;stroke:#687477;stroke-width:11.5855;stroke-miterlimit:10;}
	.st9{fill:none;}
	.st10{fill:#FFFFFF;}
</style>
<symbol  id="Novo_símbolo_1" viewBox="-17.2 -10.5 34.3 21">
	<line class="st0" x1="5.4" y1="6.5" x2="-5.4" y2="-6.5"/>
	<line class="st0" x1="-0.3" y1="9.8" x2="-16.4" y2="-9.5"/>
	<line class="st0" x1="16.4" y1="9.5" x2="0.3" y2="-9.8"/>
</symbol>
<g>
	<polygon class="st6" points="27.3,423.2 422.7,423.2 27.3,34.6 	"/>
	<polygon class="st2" points="31.6,418.9 33.5,41.5 38.1,104 59.4,393.7 320.9,418.9 	"/>
	
		<use xlink:href="#Novo_símbolo_1"  width="34.3" height="21" x="-17.2" y="-10.5" transform="matrix(4.2753 0 0 -4.2753 176.268 331.7206)" style="overflow:visible;"/>
</g>
<g id="borda_1_">
	<g>
		<g>
			<g>
				<rect x="-9.4" y="394.1" class="st9" width="30" height="31.5"/>
				<g>
					<g id="Novo_símbolo_387_">
						<polygon class="st3" points="-9.4,425.6 -9.4,394.1 20.5,409.8 						"/>
					</g>
				</g>
			</g>
			<g>
				<rect x="-9.4" y="349.9" class="st9" width="30" height="31.5"/>
				<g>
					<g id="Novo_símbolo_386_">
						<polygon class="st3" points="-9.4,381.4 -9.4,349.9 20.5,365.6 						"/>
					</g>
				</g>
			</g>
			<g>
				<rect x="-9.4" y="305.7" class="st9" width="30" height="31.5"/>
				<g>
					<g id="Novo_símbolo_385_">
						<polygon class="st3" points="-9.4,337.2 -9.4,305.7 20.5,321.4 						"/>
					</g>
				</g>
			</g>
			<g>
				<rect x="-9.4" y="261.5" class="st9" width="30" height="31.5"/>
				<g>
					<g id="Novo_símbolo_384_">
						<polygon class="st3" points="-9.4,293 -9.4,261.5 20.5,277.2 						"/>
					</g>
				</g>
			</g>
			<g>
				<rect x="-9.4" y="217.3" class="st9" width="30" height="31.5"/>
				<g>
					<g id="Novo_símbolo_383_">
						<polygon class="st3" points="-9.4,248.8 -9.4,217.3 20.5,233 						"/>
					</g>
				</g>
			</g>
			<g>
				<rect x="-9.4" y="173.1" class="st9" width="30" height="31.5"/>
				<g>
					<g id="Novo_símbolo_382_">
						<polygon class="st3" points="-9.4,204.6 -9.4,173.1 20.5,188.8 						"/>
					</g>
				</g>
			</g>
			<g>
				<rect x="-9.4" y="128.9" class="st9" width="30" height="31.5"/>
				<g>
					<g id="Novo_símbolo_381_">
						<polygon class="st3" points="-9.4,160.4 -9.4,128.9 20.5,144.6 						"/>
					</g>
				</g>
			</g>
			<g>
				<rect x="-9.4" y="84.7" class="st9" width="30" height="31.5"/>
				<g>
					<g id="Novo_símbolo_380_">
						<polygon class="st3" points="-9.4,116.1 -9.4,84.7 20.5,100.4 						"/>
					</g>
				</g>
			</g>
			<g>
				<rect x="-9.4" y="40.5" class="st9" width="30" height="31.5"/>
				<g>
					<g id="Novo_símbolo_379_">
						<polygon class="st3" points="-9.4,71.9 -9.4,40.5 20.5,56.2 						"/>
					</g>
				</g>
			</g>
			<g>
				
					<rect x="42.9" y="17.2" transform="matrix(0.701 -0.7132 0.7132 0.701 -6.1815 51.1079)" class="st9" width="30" height="31.5"/>
				<g>
					<g id="Novo_símbolo_378_">
						<polygon class="st3" points="57.1,11.2 79.6,33.3 47.4,43.6 						"/>
					</g>
				</g>
			</g>
			<g>
				
					<rect x="74.4" y="48.2" transform="matrix(0.701 -0.7132 0.7132 0.701 -18.8538 82.8582)" class="st9" width="30" height="31.5"/>
				<g>
					<g id="Novo_símbolo_377_">
						<polygon class="st3" points="88.7,42.2 111.1,64.3 78.9,74.6 						"/>
					</g>
				</g>
			</g>
			<g>
				
					<rect x="105.9" y="79.2" transform="matrix(0.701 -0.7132 0.7132 0.701 -31.526 114.6085)" class="st9" width="30" height="31.5"/>
				<g>
					<g id="Novo_símbolo_376_">
						<polygon class="st3" points="120.2,73.2 142.6,95.3 110.4,105.6 						"/>
					</g>
				</g>
			</g>
			<g>
				
					<rect x="137.5" y="110.1" transform="matrix(0.701 -0.7132 0.7132 0.701 -44.1982 146.3588)" class="st9" width="30" height="31.5"/>
				<g>
					<g id="Novo_símbolo_375_">
						<polygon class="st3" points="151.7,104.2 174.2,126.2 141.9,136.6 						"/>
					</g>
				</g>
			</g>
			<g>
				
					<rect x="169" y="141.1" transform="matrix(0.701 -0.7132 0.7132 0.701 -56.8704 178.1091)" class="st9" width="30" height="31.5"/>
				<g>
					<g id="Novo_símbolo_374_">
						<polygon class="st3" points="183.2,135.2 205.7,157.2 173.5,167.6 						"/>
					</g>
				</g>
			</g>
			<g>
				
					<rect x="200.5" y="172.1" transform="matrix(0.701 -0.7132 0.7132 0.701 -69.5427 209.8595)" class="st9" width="30" height="31.5"/>
				<g>
					<g id="Novo_símbolo_373_">
						<polygon class="st3" points="214.8,166.1 237.2,188.2 205,198.5 						"/>
					</g>
				</g>
			</g>
			<g>
				
					<rect x="232" y="203.1" transform="matrix(0.701 -0.7132 0.7132 0.701 -82.2149 241.6098)" class="st9" width="30" height="31.5"/>
				<g>
					<g id="Novo_símbolo_372_">
						<polygon class="st3" points="246.3,197.1 268.7,219.2 236.5,229.5 						"/>
					</g>
				</g>
			</g>
			<g>
				
					<rect x="263.6" y="234.1" transform="matrix(0.701 -0.7132 0.7132 0.701 -94.8871 273.3601)" class="st9" width="30" height="31.5"/>
				<g>
					<g id="Novo_símbolo_371_">
						<polygon class="st3" points="277.8,228.1 300.3,250.2 268,260.5 						"/>
					</g>
				</g>
			</g>
			<g>
				
					<rect x="295.1" y="265.1" transform="matrix(0.701 -0.7132 0.7132 0.701 -107.5593 305.1104)" class="st9" width="30" height="31.5"/>
				<g>
					<g id="Novo_símbolo_370_">
						<polygon class="st3" points="309.3,259.1 331.8,281.2 299.6,291.5 						"/>
					</g>
				</g>
			</g>
			<g>
				
					<rect x="326.6" y="296.1" transform="matrix(0.701 -0.7132 0.7132 0.701 -120.2316 336.8608)" class="st9" width="30" height="31.5"/>
				<g>
					<g id="Novo_símbolo_369_">
						<polygon class="st3" points="340.9,290.1 363.3,312.2 331.1,322.5 						"/>
					</g>
				</g>
			</g>
			<g>
				
					<rect x="358.1" y="327.1" transform="matrix(0.701 -0.7132 0.7132 0.701 -132.9038 368.6111)" class="st9" width="30" height="31.5"/>
				<g>
					<g id="Novo_símbolo_368_">
						<polygon class="st3" points="372.4,321.1 394.8,343.1 362.6,353.5 						"/>
					</g>
				</g>
			</g>
			<g>
				
					<rect x="389.7" y="358" transform="matrix(0.701 -0.7132 0.7132 0.701 -145.576 400.3614)" class="st9" width="30" height="31.5"/>
				<g>
					<g id="Novo_símbolo_367_">
						<polygon class="st3" points="403.9,352.1 426.4,374.1 394.2,384.5 						"/>
					</g>
				</g>
			</g>
			<g>
				
					<rect x="421.2" y="389" transform="matrix(0.701 -0.7132 0.7132 0.701 -158.2482 432.1117)" class="st9" width="30" height="31.5"/>
				<g>
					<g id="Novo_símbolo_366_">
						<polygon class="st3" points="435.5,383.1 457.9,405.1 425.7,415.5 						"/>
					</g>
				</g>
			</g>
			<g>
				<rect x="365.2" y="428.8" class="st9" width="31.5" height="30"/>
				<g>
					<g id="Novo_símbolo_365_">
						<polygon class="st3" points="396.7,458.8 365.2,458.8 381,428.8 						"/>
					</g>
				</g>
			</g>
			<g>
				<rect x="321" y="428.8" class="st9" width="31.5" height="30"/>
				<g>
					<g id="Novo_símbolo_364_">
						<polygon class="st3" points="352.5,458.8 321,458.8 336.8,428.8 						"/>
					</g>
				</g>
			</g>
			<g>
				<rect x="276.8" y="428.8" class="st9" width="31.5" height="30"/>
				<g>
					<g id="Novo_símbolo_363_">
						<polygon class="st3" points="308.3,458.8 276.8,458.8 292.5,428.8 						"/>
					</g>
				</g>
			</g>
			<g>
				<rect x="232.6" y="428.8" class="st9" width="31.5" height="30"/>
				<g>
					<g id="Novo_símbolo_362_">
						<polygon class="st3" points="264.1,458.8 232.6,458.8 248.3,428.8 						"/>
					</g>
				</g>
			</g>
			<g>
				<rect x="188.4" y="428.8" class="st9" width="31.5" height="30"/>
				<g>
					<g id="Novo_símbolo_361_">
						<polygon class="st3" points="219.9,458.8 188.4,458.8 204.1,428.8 						"/>
					</g>
				</g>
			</g>
			<g>
				<rect x="144.2" y="428.8" class="st9" width="31.5" height="30"/>
				<g>
					<g id="Novo_símbolo_360_">
						<polygon class="st3" points="175.7,458.8 144.2,458.8 159.9,428.8 						"/>
					</g>
				</g>
			</g>
			<g>
				<rect x="100" y="428.8" class="st9" width="31.5" height="30"/>
				<g>
					<g id="Novo_símbolo_359_">
						<polygon class="st3" points="131.5,458.8 100,458.8 115.7,428.8 						"/>
					</g>
				</g>
			</g>
			<g>
				<rect x="55.8" y="428.8" class="st9" width="31.5" height="30"/>
				<g>
					<g id="Novo_símbolo_358_">
						<polygon class="st3" points="87.3,458.8 55.8,458.8 71.5,428.8 						"/>
					</g>
				</g>
			</g>
			<g>
				<rect x="11.6" y="428.8" class="st9" width="31.5" height="30"/>
				<g>
					<g id="Novo_símbolo_357_">
						<polygon class="st3" points="43.1,458.8 11.6,458.8 27.3,428.8 						"/>
					</g>
				</g>
			</g>
		</g>
	</g>
</g>
</svg>
