<?xml version="1.0" encoding="utf-8"?>
<!-- Generator: Adobe Illustrator 21.1.0, SVG Export Plug-In . SVG Version: 6.00 Build 0)  -->
<svg version="1.1" id="Camada_1" xmlns="http://www.w3.org/2000/svg" xmlns:xlink="http://www.w3.org/1999/xlink" x="0px" y="0px"
	 viewBox="0 0 450 450" style="enable-background:new 0 0 450 450;" xml:space="preserve">
<style type="text/css">
	.st0{fill:none;stroke:#BAD2D8;stroke-width:2;stroke-miterlimit:10;}
	.st1{fill:#FFFFFF;stroke:#687477;stroke-width:3;stroke-miterlimit:10;}
	.st2{fill:#D1E9ED;}
	.st3{fill:#687477;}
	.st4{fill:#FFFFFF;stroke:#687477;stroke-width:13.4039;stroke-miterlimit:10;}
	.st5{fill:#FFFFFF;stroke:#687477;stroke-width:12.9686;stroke-miterlimit:10;}
	.st6{fill:#FFFFFF;stroke:#687477;stroke-width:12.8259;stroke-miterlimit:10;}
	.st7{fill:#FFFFFF;stroke:#687477;stroke-width:13.4839;stroke-miterlimit:10;}
	.st8{fill:#FFFFFF;stroke:#687477;stroke-width:11.5855;stroke-miterlimit:10;}
	.st9{fill:none;}
	.st10{fill:#FFFFFF;}
</style>
<symbol  id="Novo_símbolo_1" viewBox="-17.2 -10.5 34.3 21">
	<line class="st0" x1="5.4" y1="6.5" x2="-5.4" y2="-6.5"/>
	<line class="st0" x1="-0.3" y1="9.8" x2="-16.4" y2="-9.5"/>
	<line class="st0" x1="16.4" y1="9.5" x2="0.3" y2="-9.8"/>
</symbol>
<g>
	<path class="st4" d="M69.3,432h311.3l0-238.5c0-89.7-75.7-160.9-165.2-155.4l0,0c-82.1,5.1-146.1,73.1-146.1,155.4L69.3,432z"/>
	<path class="st2" d="M81.6,212.1c-1.2-26.2,2.7-52.5,11.7-77.1c5.1-13.9,10.8-27,15.7-36.4c-19.4,21.6-35.2,66-35.2,95L69.3,432
		l305.5-7.3L99.5,401.7L81.6,212.1z"/>
	
		<use xlink:href="#Novo_símbolo_1"  width="34.3" height="21" x="-17.2" y="-10.5" transform="matrix(4.468 0 0 -6.9745 230.585 254.3655)" style="overflow:visible;"/>
</g>
<g id="borda_1_">
	<g id="borda">
		<g>
			<g>
				<rect x="32.6" y="377.9" class="st9" width="30" height="31.5"/>
				<g>
					<g id="Novo_símbolo_328_">
						<polygon class="st3" points="32.6,409.3 32.6,377.9 62.5,393.6 						"/>
					</g>
				</g>
			</g>
			<g>
				<rect x="32.6" y="333.6" class="st9" width="30" height="31.5"/>
				<g>
					<g id="Novo_símbolo_327_">
						<polygon class="st3" points="32.6,365.1 32.6,333.6 62.5,349.4 						"/>
					</g>
				</g>
			</g>
			<g>
				<rect x="32.6" y="289.4" class="st9" width="30" height="31.5"/>
				<g>
					<g id="Novo_símbolo_326_">
						<polygon class="st3" points="32.6,320.9 32.6,289.4 62.5,305.2 						"/>
					</g>
				</g>
			</g>
			<g>
				<rect x="32.6" y="245.2" class="st9" width="30" height="31.5"/>
				<g>
					<g id="Novo_símbolo_325_">
						<polygon class="st3" points="32.6,276.7 32.6,245.2 62.5,261 						"/>
					</g>
				</g>
			</g>
			<g>
				<rect x="32.6" y="201" class="st9" width="30" height="31.5"/>
				<g>
					<g id="Novo_símbolo_324_">
						<polygon class="st3" points="32.6,232.5 32.6,201 62.5,216.8 						"/>
					</g>
				</g>
			</g>
			<g>
				
					<rect x="34.7" y="155" transform="matrix(0.1279 -0.9918 0.9918 0.1279 -124.5772 198.2344)" class="st9" width="31.5" height="30"/>
				<g>
					<g id="Novo_símbolo_323_">
						<polygon class="st3" points="33.6,183.6 37.6,152.4 65.3,171.9 						"/>
					</g>
				</g>
			</g>
			<g>
				
					<rect x="47.9" y="107.4" transform="matrix(0.3739 -0.9275 0.9275 0.3739 -73.6346 135.6623)" class="st9" width="31.5" height="30"/>
				<g>
					<g id="Novo_símbolo_322_">
						<polygon class="st3" points="43.9,131.4 55.7,102.2 77.6,128 						"/>
					</g>
				</g>
			</g>
			<g>
				
					<rect x="73.7" y="65.4" transform="matrix(0.5906 -0.807 0.807 0.5906 -28.2119 105.0579)" class="st9" width="31.5" height="30"/>
				<g>
					<g id="Novo_símbolo_321_">
						<polygon class="st3" points="68,84.2 86.6,58.8 101.5,89.2 						"/>
					</g>
				</g>
			</g>
			<g>
				
					<rect x="110" y="31.9" transform="matrix(0.7691 -0.6391 0.6391 0.7691 -0.9465 91.1536)" class="st9" width="31.5" height="30"/>
				<g>
					<g id="Novo_símbolo_320_">
						<polygon class="st3" points="104,45.4 128.2,25.3 135.3,58.4 						"/>
					</g>
				</g>
			</g>
			<g>
				
					<rect x="159.7" y="8.7" transform="matrix(0.9821 -0.1886 0.1886 0.9821 -1.3184 33.5134)" class="st9" width="31.5" height="30"/>
				<g>
					<g id="Novo_símbolo_319_">
						<polygon class="st3" points="157.1,11.9 188.1,6 178.3,38.4 						"/>
					</g>
				</g>
			</g>
			<g>
				
					<rect x="209.4" y="1.1" transform="matrix(5.771726e-02 -0.9983 0.9983 5.771726e-02 194.5306 239.8595)" class="st9" width="30" height="31.5"/>
				<g>
					<g id="Novo_símbolo_318_">
						<polygon class="st3" points="209.5,1 240.9,2.8 223.5,31.8 						"/>
					</g>
				</g>
			</g>
			<g>
				
					<rect x="258" y="8" transform="matrix(0.2914 -0.9566 0.9566 0.2914 170.7213 277.9031)" class="st9" width="30" height="31.5"/>
				<g>
					<g id="Novo_símbolo_317_">
						<polygon class="st3" points="262.3,4.8 292.4,14 268.6,38 						"/>
					</g>
				</g>
			</g>
			<g>
				
					<rect x="302.8" y="27.6" transform="matrix(0.5033 -0.8641 0.8641 0.5033 120.3411 296.1251)" class="st9" width="30" height="31.5"/>
				<g>
					<g id="Novo_símbolo_316_">
						<polygon class="st3" points="311.7,22.5 338.9,38.4 310.2,56.3 						"/>
					</g>
				</g>
			</g>
			<g>
				
					<rect x="340.7" y="58.5" transform="matrix(0.685 -0.7285 0.7285 0.685 57.945 282.5148)" class="st9" width="30" height="31.5"/>
				<g>
					<g id="Novo_símbolo_315_">
						<polygon class="st3" points="354.5,52.6 377.4,74.1 345.4,85.2 						"/>
					</g>
				</g>
			</g>
			<g>
				
					<rect x="370.6" y="103.4" transform="matrix(0.9369 -0.3497 0.3497 0.9369 -17.3106 142.3345)" class="st9" width="30" height="31.5"/>
				<g>
					<g id="Novo_símbolo_314_">
						<polygon class="st3" points="394.1,99.1 405.1,128.6 371.5,124.3 						"/>
					</g>
				</g>
			</g>
			<g>
				
					<rect x="384.3" y="150.5" transform="matrix(0.9929 -0.119 0.119 0.9929 -16.9466 48.7024)" class="st9" width="30" height="31.5"/>
				<g>
					<g id="Novo_símbolo_313_">
						<polygon class="st3" points="412.3,148.8 416.1,180.1 384.4,168 						"/>
					</g>
				</g>
			</g>
			<g>
				<rect x="387.5" y="197.1" class="st9" width="30" height="31.5"/>
				<g>
					<g id="Novo_símbolo_312_">
						<polygon class="st3" points="417.4,197.1 417.4,228.6 387.5,212.9 						"/>
					</g>
				</g>
			</g>
			<g>
				<rect x="387.5" y="241.3" class="st9" width="30" height="31.5"/>
				<g>
					<g id="Novo_símbolo_311_">
						<polygon class="st3" points="417.4,241.3 417.4,272.8 387.5,257.1 						"/>
					</g>
				</g>
			</g>
			<g>
				<rect x="387.5" y="285.5" class="st9" width="30" height="31.5"/>
				<g>
					<g id="Novo_símbolo_310_">
						<polygon class="st3" points="417.4,285.5 417.4,317 387.5,301.3 						"/>
					</g>
				</g>
			</g>
			<g>
				<rect x="387.5" y="329.7" class="st9" width="30" height="31.5"/>
				<g>
					<g id="Novo_símbolo_309_">
						<polygon class="st3" points="417.4,329.7 417.4,361.2 387.5,345.5 						"/>
					</g>
				</g>
			</g>
			<g>
				<rect x="387.5" y="373.9" class="st9" width="30" height="31.5"/>
				<g>
					<g id="Novo_símbolo_308_">
						<polygon class="st3" points="417.4,373.9 417.4,405.4 387.5,389.7 						"/>
					</g>
				</g>
			</g>
			<g>
				<rect x="363" y="438.8" class="st9" width="31.5" height="30"/>
				<g>
					<g id="Novo_símbolo_307_">
						<polygon class="st3" points="394.5,468.7 363,468.7 378.8,438.8 						"/>
					</g>
				</g>
			</g>
			<g>
				<rect x="318.8" y="438.8" class="st9" width="31.5" height="30"/>
				<g>
					<g id="Novo_símbolo_306_">
						<polygon class="st3" points="350.3,468.7 318.8,468.7 334.6,438.8 						"/>
					</g>
				</g>
			</g>
			<g>
				<rect x="274.6" y="438.8" class="st9" width="31.5" height="30"/>
				<g>
					<g id="Novo_símbolo_305_">
						<polygon class="st3" points="306.1,468.7 274.6,468.7 290.4,438.8 						"/>
					</g>
				</g>
			</g>
			<g>
				<rect x="230.4" y="438.8" class="st9" width="31.5" height="30"/>
				<g>
					<g id="Novo_símbolo_304_">
						<polygon class="st3" points="261.9,468.7 230.4,468.7 246.2,438.8 						"/>
					</g>
				</g>
			</g>
			<g>
				<rect x="186.2" y="438.8" class="st9" width="31.5" height="30"/>
				<g>
					<g id="Novo_símbolo_303_">
						<polygon class="st3" points="217.7,468.7 186.2,468.7 202,438.8 						"/>
					</g>
				</g>
			</g>
			<g>
				<rect x="142" y="438.8" class="st9" width="31.5" height="30"/>
				<g>
					<g id="Novo_símbolo_302_">
						<polygon class="st3" points="173.5,468.7 142,468.7 157.7,438.8 						"/>
					</g>
				</g>
			</g>
			<g>
				<rect x="97.8" y="438.8" class="st9" width="31.5" height="30"/>
				<g>
					<g id="Novo_símbolo_301_">
						<polygon class="st3" points="129.3,468.7 97.8,468.7 113.5,438.8 						"/>
					</g>
				</g>
			</g>
			<g>
				<rect x="53.6" y="438.8" class="st9" width="31.5" height="30"/>
				<g>
					<g id="Novo_símbolo_300_">
						<polygon class="st3" points="85.1,468.7 53.6,468.7 69.3,438.8 						"/>
					</g>
				</g>
			</g>
		</g>
	</g>
</g>
</svg>
