<?xml version="1.0" encoding="utf-8"?>
<!-- Generator: Adobe Illustrator 21.1.0, SVG Export Plug-In . SVG Version: 6.00 Build 0)  -->
<svg version="1.1" id="Camada_1" xmlns="http://www.w3.org/2000/svg" xmlns:xlink="http://www.w3.org/1999/xlink" x="0px" y="0px"
	 viewBox="0 0 450 450" style="enable-background:new 0 0 450 450;" xml:space="preserve">
<style type="text/css">
	.st0{fill:none;stroke:#BAD2D8;stroke-width:2;stroke-miterlimit:10;}
	.st1{fill:#FFFFFF;stroke:#687477;stroke-width:3;stroke-miterlimit:10;}
	.st2{fill:#D1E9ED;}
	.st3{fill:#687477;}
	.st4{fill:#FFFFFF;stroke:#687477;stroke-width:13.4039;stroke-miterlimit:10;}
	.st5{fill:#FFFFFF;stroke:#687477;stroke-width:12.9686;stroke-miterlimit:10;}
	.st6{fill:#FFFFFF;stroke:#687477;stroke-width:12.8259;stroke-miterlimit:10;}
	.st7{fill:#FFFFFF;stroke:#687477;stroke-width:13.4839;stroke-miterlimit:10;}
	.st8{fill:#FFFFFF;stroke:#687477;stroke-width:11.5855;stroke-miterlimit:10;}
	.st9{fill:none;}
	.st10{fill:#FFFFFF;}
</style>
<symbol  id="Novo_símbolo_1" viewBox="-17.2 -10.5 34.3 21">
	<line class="st0" x1="5.4" y1="6.5" x2="-5.4" y2="-6.5"/>
	<line class="st0" x1="-0.3" y1="9.8" x2="-16.4" y2="-9.5"/>
	<line class="st0" x1="16.4" y1="9.5" x2="0.3" y2="-9.8"/>
</symbol>
<g>
	<polygon class="st7" points="69.3,432 382.4,432 383.2,181.5 71.3,23.5 	"/>
	<polygon class="st2" points="73.8,427.5 75.8,30.8 80.6,96.5 103,401 377.9,427.5 	"/>
	
		<use xlink:href="#Novo_símbolo_1"  width="34.3" height="21" x="-17.2" y="-10.5" transform="matrix(4.6801 0 0 -5.8036 229.4367 273.1184)" style="overflow:visible;"/>
</g>
<g id="borda_1_">
	<g>
		<g>
			<g>
				
					<rect x="30.8" y="374.4" transform="matrix(4.900645e-03 -1 1 4.900645e-03 -343.1295 434.0106)" class="st9" width="31.5" height="30"/>
				<g>
					<g id="Novo_símbolo_355_">
						<polygon class="st3" points="31.5,405.1 31.6,373.6 61.5,389.5 						"/>
					</g>
				</g>
			</g>
			<g>
				
					<rect x="31" y="330.2" transform="matrix(4.900645e-03 -1 1 4.900645e-03 -298.7094 390.2387)" class="st9" width="31.5" height="30"/>
				<g>
					<g id="Novo_símbolo_354_">
						<polygon class="st3" points="31.7,360.9 31.8,329.4 61.7,345.3 						"/>
					</g>
				</g>
			</g>
			<g>
				
					<rect x="31.2" y="286" transform="matrix(4.900645e-03 -1 1 4.900645e-03 -254.2893 346.4669)" class="st9" width="31.5" height="30"/>
				<g>
					<g id="Novo_símbolo_353_">
						<polygon class="st3" points="31.9,316.7 32,285.2 61.9,301.1 						"/>
					</g>
				</g>
			</g>
			<g>
				
					<rect x="31.4" y="241.8" transform="matrix(4.900645e-03 -1 1 4.900645e-03 -209.8692 302.6951)" class="st9" width="31.5" height="30"/>
				<g>
					<g id="Novo_símbolo_352_">
						<polygon class="st3" points="32.1,272.5 32.3,241 62.1,256.9 						"/>
					</g>
				</g>
			</g>
			<g>
				
					<rect x="31.6" y="197.6" transform="matrix(4.900645e-03 -1 1 4.900645e-03 -165.449 258.9233)" class="st9" width="31.5" height="30"/>
				<g>
					<g id="Novo_símbolo_351_">
						<polygon class="st3" points="32.3,228.3 32.5,196.8 62.4,212.7 						"/>
					</g>
				</g>
			</g>
			<g>
				
					<rect x="31.8" y="153.4" transform="matrix(4.900645e-03 -1 1 4.900645e-03 -121.0289 215.1515)" class="st9" width="31.5" height="30"/>
				<g>
					<g id="Novo_símbolo_350_">
						<polygon class="st3" points="32.5,184.1 32.7,152.6 62.6,168.5 						"/>
					</g>
				</g>
			</g>
			<g>
				
					<rect x="32.1" y="109.2" transform="matrix(4.900645e-03 -1 1 4.900645e-03 -76.6088 171.3797)" class="st9" width="31.5" height="30"/>
				<g>
					<g id="Novo_símbolo_349_">
						<polygon class="st3" points="32.8,139.8 32.9,108.4 62.8,124.3 						"/>
					</g>
				</g>
			</g>
			<g>
				
					<rect x="32.3" y="65" transform="matrix(4.900645e-03 -1 1 4.900645e-03 -32.1887 127.6079)" class="st9" width="31.5" height="30"/>
				<g>
					<g id="Novo_símbolo_348_">
						<polygon class="st3" points="33,95.6 33.1,64.2 63,80.1 						"/>
					</g>
				</g>
			</g>
			<g>
				
					<rect x="32.5" y="20.8" transform="matrix(4.900645e-03 -1 1 4.900645e-03 12.2314 83.8361)" class="st9" width="31.5" height="30"/>
				<g>
					<g id="Novo_símbolo_347_">
						<polygon class="st3" points="33.2,51.4 33.3,20 63.2,35.8 						"/>
					</g>
				</g>
			</g>
			<g>
				
					<rect x="90.9" y="-1.3" transform="matrix(0.4521 -0.8919 0.8919 0.4521 45.0962 102.3214)" class="st9" width="30" height="31.5"/>
				<g>
					<g id="Novo_símbolo_346_">
						<polygon class="st3" points="98.6,-6 126.7,8.2 99.1,27.8 						"/>
					</g>
				</g>
			</g>
			<g>
				
					<rect x="130.3" y="18.7" transform="matrix(0.4521 -0.8919 0.8919 0.4521 48.8706 148.4402)" class="st9" width="30" height="31.5"/>
				<g>
					<g id="Novo_símbolo_345_">
						<polygon class="st3" points="138,14 166.1,28.2 138.5,47.8 						"/>
					</g>
				</g>
			</g>
			<g>
				
					<rect x="169.7" y="38.7" transform="matrix(0.4521 -0.8919 0.8919 0.4521 52.645 194.5591)" class="st9" width="30" height="31.5"/>
				<g>
					<g id="Novo_símbolo_344_">
						<polygon class="st3" points="177.4,33.9 205.5,48.2 177.9,67.8 						"/>
					</g>
				</g>
			</g>
			<g>
				
					<rect x="209.2" y="58.7" transform="matrix(0.4521 -0.8919 0.8919 0.4521 56.4194 240.678)" class="st9" width="30" height="31.5"/>
				<g>
					<g id="Novo_símbolo_343_">
						<polygon class="st3" points="216.9,53.9 244.9,68.2 217.4,87.8 						"/>
					</g>
				</g>
			</g>
			<g>
				
					<rect x="248.6" y="78.7" transform="matrix(0.4521 -0.8919 0.8919 0.4521 60.1938 286.7969)" class="st9" width="30" height="31.5"/>
				<g>
					<g id="Novo_símbolo_342_">
						<polygon class="st3" points="256.3,73.9 284.4,88.2 256.8,107.8 						"/>
					</g>
				</g>
			</g>
			<g>
				
					<rect x="288" y="98.6" transform="matrix(0.4521 -0.8919 0.8919 0.4521 63.9682 332.9157)" class="st9" width="30" height="31.5"/>
				<g>
					<g id="Novo_símbolo_341_">
						<polygon class="st3" points="295.7,93.9 323.8,108.1 296.2,127.7 						"/>
					</g>
				</g>
			</g>
			<g>
				
					<rect x="327.4" y="118.6" transform="matrix(0.4521 -0.8919 0.8919 0.4521 67.7426 379.0346)" class="st9" width="30" height="31.5"/>
				<g>
					<g id="Novo_símbolo_340_">
						<polygon class="st3" points="335.1,113.9 363.2,128.1 335.6,147.7 						"/>
					</g>
				</g>
			</g>
			<g>
				
					<rect x="366.9" y="138.6" transform="matrix(0.4521 -0.8919 0.8919 0.4521 71.517 425.1535)" class="st9" width="30" height="31.5"/>
				<g>
					<g id="Novo_símbolo_339_">
						<polygon class="st3" points="374.6,133.9 402.7,148.1 375.1,167.7 						"/>
					</g>
				</g>
			</g>
			<g>
				
					<rect x="387.8" y="197" transform="matrix(3.017792e-03 -1 1 3.017792e-03 190.4166 614.9019)" class="st9" width="31.5" height="30"/>
				<g>
					<g id="Novo_símbolo_338_">
						<polygon class="st3" points="418.6,196.3 418.5,227.7 388.6,211.9 						"/>
					</g>
				</g>
			</g>
			<g>
				
					<rect x="387.7" y="241.2" transform="matrix(3.017792e-03 -1 1 3.017792e-03 146.0784 658.8405)" class="st9" width="31.5" height="30"/>
				<g>
					<g id="Novo_símbolo_337_">
						<polygon class="st3" points="418.5,240.5 418.4,271.9 388.5,256.1 						"/>
					</g>
				</g>
			</g>
			<g>
				
					<rect x="387.6" y="285.4" transform="matrix(3.017792e-03 -1 1 3.017792e-03 101.7402 702.7791)" class="st9" width="31.5" height="30"/>
				<g>
					<g id="Novo_símbolo_336_">
						<polygon class="st3" points="418.3,284.7 418.3,316.2 388.3,300.3 						"/>
					</g>
				</g>
			</g>
			<g>
				
					<rect x="387.4" y="329.6" transform="matrix(3.017792e-03 -1 1 3.017792e-03 57.402 746.7177)" class="st9" width="31.5" height="30"/>
				<g>
					<g id="Novo_símbolo_335_">
						<polygon class="st3" points="418.2,328.9 418.1,360.4 388.2,344.5 						"/>
					</g>
				</g>
			</g>
			<g>
				
					<rect x="387.3" y="373.8" transform="matrix(3.017792e-03 -1 1 3.017792e-03 13.0638 790.6562)" class="st9" width="31.5" height="30"/>
				<g>
					<g id="Novo_símbolo_334_">
						<polygon class="st3" points="418.1,373.1 418,404.6 388.1,388.7 						"/>
					</g>
				</g>
			</g>
			<g>
				<rect x="361.8" y="436.1" class="st9" width="31.5" height="30"/>
				<g>
					<g id="Novo_símbolo_333_">
						<polygon class="st3" points="393.3,466 361.8,466 377.5,436.1 						"/>
					</g>
				</g>
			</g>
			<g>
				<rect x="317.6" y="436.1" class="st9" width="31.5" height="30"/>
				<g>
					<g id="Novo_símbolo_332_">
						<polygon class="st3" points="349.1,466 317.6,466 333.3,436.1 						"/>
					</g>
				</g>
			</g>
			<g>
				<rect x="273.4" y="436.1" class="st9" width="31.5" height="30"/>
				<g>
					<g id="Novo_símbolo_331_">
						<polygon class="st3" points="304.8,466 273.4,466 289.1,436.1 						"/>
					</g>
				</g>
			</g>
			<g>
				<rect x="229.2" y="436.1" class="st9" width="31.5" height="30"/>
				<g>
					<g id="Novo_símbolo_330_">
						<polygon class="st3" points="260.6,466 229.2,466 244.9,436.1 						"/>
					</g>
				</g>
			</g>
			<g>
				<rect x="185" y="436.1" class="st9" width="31.5" height="30"/>
				<g>
					<g id="Novo_símbolo_329_">
						<polygon class="st3" points="216.4,466 185,466 200.7,436.1 						"/>
					</g>
				</g>
			</g>
			<g>
				<rect x="140.8" y="436.1" class="st9" width="31.5" height="30"/>
				<g>
					<g id="Novo_símbolo_299_">
						<polygon class="st3" points="172.2,466 140.8,466 156.5,436.1 						"/>
					</g>
				</g>
			</g>
			<g>
				<rect x="96.5" y="436.1" class="st9" width="31.5" height="30"/>
				<g>
					<g id="Novo_símbolo_298_">
						<polygon class="st3" points="128,466 96.5,466 112.3,436.1 						"/>
					</g>
				</g>
			</g>
			<g>
				<rect x="52.3" y="436.1" class="st9" width="31.5" height="30"/>
				<g>
					<g id="Novo_símbolo_297_">
						<polygon class="st3" points="83.8,466 52.3,466 68.1,436.1 						"/>
					</g>
				</g>
			</g>
		</g>
	</g>
</g>
</svg>
