<?xml version="1.0" encoding="utf-8"?>
<!-- Generator: Adobe Illustrator 21.1.0, SVG Export Plug-In . SVG Version: 6.00 Build 0)  -->
<svg version="1.1" id="Layer_1" xmlns="http://www.w3.org/2000/svg" xmlns:xlink="http://www.w3.org/1999/xlink" x="0px" y="0px"
	 viewBox="0 0 297.7 374.7" style="enable-background:new 0 0 297.7 374.7;" xml:space="preserve">
<style type="text/css">
	.st0{fill:#FFFFFF;stroke:#687477;stroke-width:3;stroke-miterlimit:10;}
	.st1{fill:none;stroke:#BAD2D8;stroke-width:2;stroke-miterlimit:10;}
	.st2{fill:#D1E9ED;}
	.st3{fill:#687477;}
	.st4{fill:none;stroke:#9E1010;stroke-width:7;stroke-linecap:square;stroke-miterlimit:10;}
	.st5{opacity:0;}
	.st6{font-family:'MyriadArabic-Regular';}
	.st7{font-size:30.4922px;}
	.st8{fill:none;stroke:#687477;stroke-width:0.896;stroke-miterlimit:10;}
</style>
<symbol  id="Novo_símbolo" viewBox="-36.3 -48.9 72.7 97.8">
	<rect x="-34.8" y="-47.4" class="st0" width="69.7" height="94.8"/>
</symbol>
<symbol  id="Novo_símbolo_1" viewBox="-17.2 -10.4 34.3 20.9">
	<line class="st1" x1="5.4" y1="-6.5" x2="-5.4" y2="6.5"/>
	<line class="st1" x1="-0.3" y1="-9.8" x2="-16.4" y2="9.5"/>
	<line class="st1" x1="16.4" y1="-9.5" x2="0.3" y2="9.8"/>
</symbol>
<g id="Camada_1">
	<g id="centro">
		
			<use xlink:href="#Novo_símbolo"  width="72.7" height="97.8" x="-36.3" y="-48.9" transform="matrix(2.04 0 0 2.04 149.4692 188.1833)" style="overflow:visible;"/>
		<polygon class="st2" points="80.4,284.6 81.2,91.4 87.6,113.7 93.6,271.7 218.1,282.2 		"/>
		
			<use xlink:href="#Novo_símbolo_1"  width="34.3" height="20.9" x="-17.2" y="-10.4" transform="matrix(2.038 0 0 2.038 155.388 191.1761)" style="overflow:visible;"/>
	</g>
	<g id="direita">
		<polygon class="st3" points="245.1,85.7 245.1,104.2 227.5,95 		"/>
		<polygon class="st3" points="245.1,112.4 245.1,130.9 227.5,121.6 		"/>
		<polygon class="st3" points="245.1,139 245.1,157.6 227.5,148.3 		"/>
		<polygon class="st3" points="245.1,165.7 245.1,184.2 227.5,175 		"/>
		<polygon class="st3" points="245.1,192.4 245.1,210.9 227.5,201.6 		"/>
		<polygon class="st3" points="245.1,219 245.1,237.6 227.5,228.3 		"/>
		<polygon class="st3" points="245.1,245.7 245.1,264.2 227.5,255 		"/>
		<polygon class="st3" points="245.1,272.4 245.1,290.9 227.5,281.7 		"/>
	</g>
	<g id="esquerda">
		<polygon class="st3" points="52.6,290.9 52.6,272.4 70.2,281.7 		"/>
		<polygon class="st3" points="52.6,264.2 52.6,245.7 70.2,255 		"/>
		<polygon class="st3" points="52.6,237.6 52.6,219 70.2,228.3 		"/>
		<polygon class="st3" points="52.6,210.9 52.6,192.4 70.2,201.6 		"/>
		<polygon class="st3" points="52.6,184.2 52.6,165.7 70.2,175 		"/>
		<polygon class="st3" points="52.6,157.6 52.6,139 70.2,148.3 		"/>
		<polygon class="st3" points="52.6,130.9 52.6,112.4 70.2,121.6 		"/>
		<polygon class="st3" points="52.6,104.2 52.6,85.7 70.2,95 		"/>
	</g>
	<g id="topo">
		<polygon class="st3" points="69,66.2 87.6,66.2 78.3,83.8 		"/>
		<polygon class="st3" points="97,66.2 115.5,66.2 106.3,83.8 		"/>
		<polygon class="st3" points="125,66.2 143.5,66.2 134.2,83.8 		"/>
		<polygon class="st3" points="152.9,66.2 171.5,66.2 162.2,83.8 		"/>
		<polygon class="st3" points="180.9,66.2 199.4,66.2 190.2,83.8 		"/>
		<polygon class="st3" points="208.9,66.2 227.4,66.2 218.1,83.8 		"/>
	</g>
	<g id="baixo">
		<polygon class="st3" points="227.4,308.6 208.9,308.6 218.1,290.9 		"/>
		<polygon class="st3" points="199.4,308.6 180.9,308.6 190.2,290.9 		"/>
		<polygon class="st3" points="171.5,308.6 152.9,308.6 162.2,290.9 		"/>
		<polygon class="st3" points="143.5,308.6 125,308.6 134.2,290.9 		"/>
		<polygon class="st3" points="115.5,308.6 97,308.6 106.3,290.9 		"/>
		<polygon class="st3" points="87.6,308.6 69,308.6 78.3,290.9 		"/>
	</g>
</g>
<g id="ladoLivreEsquerda">
	<line class="st4" x1="78.3" y1="91.4" x2="78.3" y2="284.6"/>
</g>
<g id="ladoLivreDireita">
	<line class="st4" x1="220.2" y1="91.4" x2="220.2" y2="284.6"/>
</g>
<g id="ladoLivreTopo">
	<line class="st4" x1="78.3" y1="91.4" x2="220.2" y2="91.4"/>
</g>
<g id="ladoLivreBaixo">
	<line class="st4" x1="78.3" y1="284.6" x2="220.2" y2="284.6"/>
</g>
<g id="cotas">
	<g id="cotas_1_" class="st5">
		<g id="cotas_10_">
			<text transform="matrix(1 0 0 1 14.8101 195.934)" class="st3 st6 st7">A</text>
			<g>
				<g>
					<line class="st8" x1="46.3" y1="32.5" x2="46.3" y2="341.5"/>
					<g>
						<polygon class="st3" points="43.7,34.3 46.3,24.6 48.9,34.3 						"/>
					</g>
					<g>
						<polygon class="st3" points="43.7,339.7 46.3,349.4 48.9,339.7 						"/>
					</g>
				</g>
			</g>
		</g>
		<g id="cotas_8_">
			<text transform="matrix(1 0 0 1 144.6716 349.6511)" class="st3 st6 st7">B</text>
			<g>
				<g>
					<line class="st8" x1="34.9" y1="317.5" x2="270.8" y2="317.5"/>
					<g>
						<polygon class="st3" points="36.7,320.1 27,317.5 36.7,314.9 						"/>
					</g>
					<g>
						<polygon class="st3" points="269.1,320.1 278.8,317.5 269.1,314.9 						"/>
					</g>
				</g>
			</g>
		</g>
	</g>
</g>
</svg>
