<?xml version="1.0" encoding="utf-8"?>
<!-- Generator: Adobe Illustrator 21.1.0, SVG Export Plug-In . SVG Version: 6.00 Build 0)  -->
<svg version="1.1" xmlns="http://www.w3.org/2000/svg" xmlns:xlink="http://www.w3.org/1999/xlink" x="0px" y="0px"
	 viewBox="0 0 450 476" style="enable-background:new 0 0 450 476;" xml:space="preserve">
<style type="text/css">
	.st0{fill:none;stroke:#BAD2D8;stroke-width:2;stroke-miterlimit:10;}
	.st1{fill:#FFFFFF;stroke:#687477;stroke-width:3;stroke-miterlimit:10;}
	.st2{fill:#D1E9ED;}
	.st3{fill:#FFFFFF;stroke:#687477;stroke-width:11.0466;stroke-miterlimit:10;}
	.st4{fill:#FFFFFF;stroke:#687477;stroke-width:10.6879;stroke-miterlimit:10;}
	.st5{fill:#FFFFFF;stroke:#687477;stroke-width:10.5703;stroke-miterlimit:10;}
	.st6{fill:none;}
	.st7{fill:#687477;}
	.st8{fill:#FFFFFF;stroke:#687477;stroke-width:11.1126;stroke-miterlimit:10;}
	.st9{fill:#FFFFFF;stroke:#687477;stroke-width:9.548;stroke-miterlimit:10;}
	.st10{fill:none;stroke:#687477;stroke-width:0.896;stroke-miterlimit:10;}
	.st11{font-family:'MyriadPro-Regular';}
	.st12{font-size:30.4922px;}
</style>
<symbol  id="Novo_símbolo_1" viewBox="-17.2 -10.5 34.3 21">
	<line class="st0" x1="5.4" y1="6.5" x2="-5.4" y2="-6.5"/>
	<line class="st0" x1="-0.3" y1="9.8" x2="-16.4" y2="-9.5"/>
	<line class="st0" x1="16.4" y1="9.5" x2="0.3" y2="-9.8"/>
</symbol>
<g id="Camada_1">
	<g>
		<polygon class="st8" points="95.7,393.3 353.7,393.3 354.3,186.9 97.3,56.7 		"/>
		<polygon class="st2" points="99.4,389.6 101,62.7 105,116.8 123.4,367.8 350,389.6 		"/>
		
			<use xlink:href="#Novo_símbolo_1"  width="34.3" height="21" x="-17.2" y="-10.5" transform="matrix(3.8571 0 0 -4.783 227.6231 262.4064)" style="overflow:visible;"/>
	</g>
	<g style="opacity: 0" id="borda_1_">
	<g>
		<g>
			<g>
				
					<rect x="64.9" y="348.2" transform="matrix(4.900666e-03 -1 1 4.900666e-03 -282.9788 436.6281)" class="st6" width="25.9" height="24.7"/>
				<g>
					<g id="Novo_símbolo_141_">
						<polygon class="st7" points="65.5,373.4 65.6,347.5 90.2,360.6 						"/>
					</g>
				</g>
			</g>
			<g>
				
					<rect x="65.1" y="311.7" transform="matrix(4.900666e-03 -1 1 4.900666e-03 -246.3706 400.5542)" class="st6" width="25.9" height="24.7"/>
				<g>
					<g id="Novo_símbolo_88_">
						<polygon class="st7" points="65.7,337 65.8,311 90.4,324.1 						"/>
					</g>
				</g>
			</g>
			<g>
				
					<rect x="65.3" y="275.3" transform="matrix(4.900666e-03 -1 1 4.900666e-03 -209.7624 364.4803)" class="st6" width="25.9" height="24.7"/>
				<g>
					<g id="Novo_símbolo_87_">
						<polygon class="st7" points="65.8,300.5 66,274.6 90.6,287.7 						"/>
					</g>
				</g>
			</g>
			<g>
				
					<rect x="65.5" y="238.9" transform="matrix(4.900666e-03 -1 1 4.900666e-03 -173.1542 328.4064)" class="st6" width="25.9" height="24.7"/>
				<g>
					<g id="Novo_símbolo_86_">
						<polygon class="st7" points="66,264.1 66.2,238.2 90.8,251.3 						"/>
					</g>
				</g>
			</g>
			<g>
				
					<rect x="65.6" y="202.4" transform="matrix(4.900666e-03 -1 1 4.900666e-03 -136.546 292.3324)" class="st6" width="25.9" height="24.7"/>
				<g>
					<g id="Novo_símbolo_82_">
						<polygon class="st7" points="66.2,227.7 66.3,201.7 91,214.8 						"/>
					</g>
				</g>
			</g>
			<g>
				
					<rect x="65.8" y="166" transform="matrix(4.900666e-03 -1 1 4.900666e-03 -99.9377 256.2585)" class="st6" width="25.9" height="24.7"/>
				<g>
					<g id="Novo_símbolo_81_">
						<polygon class="st7" points="66.4,191.3 66.5,165.3 91.1,178.4 						"/>
					</g>
				</g>
			</g>
			<g>
				
					<rect x="66" y="129.6" transform="matrix(4.900666e-03 -1 1 4.900666e-03 -63.3295 220.1846)" class="st6" width="25.9" height="24.7"/>
				<g>
					<g id="Novo_símbolo_61_">
						<polygon class="st7" points="66.6,154.8 66.7,128.9 91.3,142 						"/>
					</g>
				</g>
			</g>
			<g>
				
					<rect x="66.2" y="93.1" transform="matrix(4.900666e-03 -1 1 4.900666e-03 -26.7213 184.1107)" class="st6" width="25.9" height="24.7"/>
				<g>
					<g id="Novo_símbolo_60_">
						<polygon class="st7" points="66.7,118.4 66.9,92.4 91.5,105.5 						"/>
					</g>
				</g>
			</g>
			<g>
				
					<rect x="66.4" y="56.7" transform="matrix(4.900666e-03 -1 1 4.900666e-03 9.8869 148.0368)" class="st6" width="25.9" height="24.7"/>
				<g>
					<g id="Novo_símbolo_59_">
						<polygon class="st7" points="66.9,82 67,56 91.7,69.1 						"/>
					</g>
				</g>
			</g>
			<g>
				
					<rect x="114.5" y="38.5" transform="matrix(0.4521 -0.8919 0.8919 0.4521 23.5502 141.2992)" class="st6" width="24.7" height="25.9"/>
				<g>
					<g id="Novo_símbolo_58_">
						<polygon class="st7" points="120.8,34.6 143.9,46.3 121.2,62.5 						"/>
					</g>
				</g>
			</g>
			<g>
				
					<rect x="146.9" y="55" transform="matrix(0.4521 -0.8919 0.8919 0.4521 26.6608 179.3074)" class="st6" width="24.7" height="25.9"/>
				<g>
					<g id="Novo_símbolo_57_">
						<polygon class="st7" points="153.3,51.1 176.4,62.8 153.7,79 						"/>
					</g>
				</g>
			</g>
			<g>
				
					<rect x="179.4" y="71.5" transform="matrix(0.4521 -0.8919 0.8919 0.4521 29.7714 217.3156)" class="st6" width="24.7" height="25.9"/>
				<g>
					<g id="Novo_símbolo_56_">
						<polygon class="st7" points="185.8,67.5 208.9,79.3 186.2,95.4 						"/>
					</g>
				</g>
			</g>
			<g>
				
					<rect x="211.9" y="87.9" transform="matrix(0.4521 -0.8919 0.8919 0.4521 32.882 255.3239)" class="st6" width="24.7" height="25.9"/>
				<g>
					<g id="Novo_símbolo_55_">
						<polygon class="st7" points="218.3,84 241.4,95.8 218.7,111.9 						"/>
					</g>
				</g>
			</g>
			<g>
				
					<rect x="244.4" y="104.4" transform="matrix(0.4521 -0.8919 0.8919 0.4521 35.9926 293.3321)" class="st6" width="24.7" height="25.9"/>
				<g>
					<g id="Novo_símbolo_54_">
						<polygon class="st7" points="250.8,100.5 273.9,112.2 251.2,128.4 						"/>
					</g>
				</g>
			</g>
			<g>
				
					<rect x="276.9" y="120.9" transform="matrix(0.4521 -0.8919 0.8919 0.4521 39.1033 331.3403)" class="st6" width="24.7" height="25.9"/>
				<g>
					<g id="Novo_símbolo_53_">
						<polygon class="st7" points="283.3,117 306.4,128.7 283.7,144.8 						"/>
					</g>
				</g>
			</g>
			<g>
				
					<rect x="309.4" y="137.3" transform="matrix(0.4521 -0.8919 0.8919 0.4521 42.2139 369.3486)" class="st6" width="24.7" height="25.9"/>
				<g>
					<g id="Novo_símbolo_52_">
						<polygon class="st7" points="315.8,133.4 338.9,145.2 316.2,161.3 						"/>
					</g>
				</g>
			</g>
			<g>
				
					<rect x="341.9" y="153.8" transform="matrix(0.4521 -0.8919 0.8919 0.4521 45.3245 407.3568)" class="st6" width="24.7" height="25.9"/>
				<g>
					<g id="Novo_símbolo_51_">
						<polygon class="st7" points="348.3,149.9 371.4,161.6 348.7,177.8 						"/>
					</g>
				</g>
			</g>
			<g>
				
					<rect x="359.2" y="201.9" transform="matrix(3.017837e-03 -1 1 3.017837e-03 156.81 585.782)" class="st6" width="25.9" height="24.7"/>
				<g>
					<g id="Novo_símbolo_50_">
						<polygon class="st7" points="384.6,201.3 384.5,227.3 359.8,214.2 						"/>
					</g>
				</g>
			</g>
			<g>
				
					<rect x="359.1" y="238.3" transform="matrix(3.017837e-03 -1 1 3.017837e-03 120.2692 621.9933)" class="st6" width="25.9" height="24.7"/>
				<g>
					<g id="Novo_símbolo_49_">
						<polygon class="st7" points="384.5,237.7 384.4,263.7 359.7,250.6 						"/>
					</g>
				</g>
			</g>
			<g>
				
					<rect x="359" y="274.8" transform="matrix(3.017837e-03 -1 1 3.017837e-03 83.7285 658.2047)" class="st6" width="25.9" height="24.7"/>
				<g>
					<g id="Novo_símbolo_48_">
						<polygon class="st7" points="384.3,274.2 384.3,300.1 359.6,287.1 						"/>
					</g>
				</g>
			</g>
			<g>
				
					<rect x="358.9" y="311.2" transform="matrix(3.017837e-03 -1 1 3.017837e-03 47.1878 694.4161)" class="st6" width="25.9" height="24.7"/>
				<g>
					<g id="Novo_símbolo_47_">
						<polygon class="st7" points="384.2,310.6 384.2,336.6 359.5,323.5 						"/>
					</g>
				</g>
			</g>
			<g>
				
					<rect x="358.8" y="347.6" transform="matrix(3.017837e-03 -1 1 3.017837e-03 10.6471 730.6274)" class="st6" width="25.9" height="24.7"/>
				<g>
					<g id="Novo_símbolo_46_">
						<polygon class="st7" points="384.1,347 384,373 359.4,359.9 						"/>
					</g>
				</g>
			</g>
			<g>
				<rect x="337.7" y="398.9" class="st6" width="25.9" height="24.7"/>
				<g>
					<g id="Novo_símbolo_45_">
						<polygon class="st7" points="363.7,423.6 337.7,423.6 350.7,398.9 						"/>
					</g>
				</g>
			</g>
			<g>
				<rect x="301.3" y="398.9" class="st6" width="25.9" height="24.7"/>
				<g>
					<g id="Novo_símbolo_44_">
						<polygon class="st7" points="327.2,423.6 301.3,423.6 314.3,398.9 						"/>
					</g>
				</g>
			</g>
			<g>
				<rect x="264.9" y="398.9" class="st6" width="25.9" height="24.7"/>
				<g>
					<g id="Novo_símbolo_43_">
						<polygon class="st7" points="290.8,423.6 264.9,423.6 277.8,398.9 						"/>
					</g>
				</g>
			</g>
			<g>
				<rect x="228.4" y="398.9" class="st6" width="25.9" height="24.7"/>
				<g>
					<g id="Novo_símbolo_42_">
						<polygon class="st7" points="254.4,423.6 228.4,423.6 241.4,398.9 						"/>
					</g>
				</g>
			</g>
			<g>
				<rect x="192" y="398.9" class="st6" width="25.9" height="24.7"/>
				<g>
					<g id="Novo_símbolo_41_">
						<polygon class="st7" points="217.9,423.6 192,423.6 205,398.9 						"/>
					</g>
				</g>
			</g>
			<g>
				<rect x="155.6" y="398.9" class="st6" width="25.9" height="24.7"/>
				<g>
					<g id="Novo_símbolo_40_">
						<polygon class="st7" points="181.5,423.6 155.6,423.6 168.5,398.9 						"/>
					</g>
				</g>
			</g>
			<g>
				<rect x="119.1" y="398.9" class="st6" width="25.9" height="24.7"/>
				<g>
					<g id="Novo_símbolo_39_">
						<polygon class="st7" points="145.1,423.6 119.1,423.6 132.1,398.9 						"/>
					</g>
				</g>
			</g>
			<g>
				<rect x="82.7" y="398.9" class="st6" width="25.9" height="24.7"/>
				<g>
					<g id="Novo_símbolo_38_">
						<polygon class="st7" points="108.6,423.6 82.7,423.6 95.7,398.9 						"/>
					</g>
				</g>
			</g>
		</g>
	</g>
</g>
		</g>

<g style="opacity: 0" id="cotas">
	<g id="cotas_7_">
		<text transform="matrix(1 0 0 1 12.512 233.9495)" class="st7 st11 st12">A</text>
		<g>
			<g>
				<line class="st10" x1="44" y1="70.5" x2="44" y2="379.5"/>
				<g>
					<polygon class="st7" points="41.4,72.3 44,62.6 46.6,72.3 					"/>
				</g>
				<g>
					<polygon class="st7" points="41.4,377.7 44,387.4 46.6,377.7 					"/>
				</g>
			</g>
		</g>
	</g>
	<g id="cotas_6_">
		<text transform="matrix(1 0 0 1 413.1792 295.1902)" class="st7 st11 st12">C</text>
		<g>
			<g>
				<line class="st10" x1="404" y1="199.9" x2="404" y2="390.1"/>
				<g>
					<polygon class="st7" points="401.4,201.7 404,192 406.6,201.7 					"/>
				</g>
				<g>
					<polygon class="st7" points="401.4,388.3 404,398 406.6,388.3 					"/>
				</g>
			</g>
		</g>
	</g>
	<g id="cotas_5_">
		<text transform="matrix(1 0 0 1 222.328 470.0544)" class="st7 st11 st12">B</text>
		<g>
			<g>
				<line class="st10" x1="112.6" y1="437.9" x2="348.5" y2="437.9"/>
				<g>
					<polygon class="st7" points="114.4,440.5 104.7,437.9 114.4,435.3 					"/>
				</g>
				<g>
					<polygon class="st7" points="346.8,440.5 356.5,437.9 346.8,435.3 					"/>
				</g>
			</g>
		</g>
	</g>
</g>
</svg>
