<?xml version="1.0" encoding="utf-8"?>
<!-- Generator: Adobe Illustrator 21.1.0, SVG Export Plug-In . SVG Version: 6.00 Build 0)  -->
<svg version="1.1" xmlns="http://www.w3.org/2000/svg" xmlns:xlink="http://www.w3.org/1999/xlink" x="0px" y="0px"
	 viewBox="0 0 450 476" style="enable-background:new 0 0 450 476;" xml:space="preserve">
<style type="text/css">
	.st0{fill:none;stroke:#BAD2D8;stroke-width:2;stroke-miterlimit:10;}
	.st1{fill:#FFFFFF;stroke:#687477;stroke-width:3;stroke-miterlimit:10;}
	.st2{fill:#D1E9ED;}
	.st3{fill:#FFFFFF;stroke:#687477;stroke-width:11.0466;stroke-miterlimit:10;}
	.st4{fill:#FFFFFF;stroke:#687477;stroke-width:10.6879;stroke-miterlimit:10;}
	.st5{fill:#FFFFFF;stroke:#687477;stroke-width:10.5703;stroke-miterlimit:10;}
	.st6{fill:none;}
	.st7{fill:#687477;}
	.st8{fill:#FFFFFF;stroke:#687477;stroke-width:11.1126;stroke-miterlimit:10;}
	.st9{fill:#FFFFFF;stroke:#687477;stroke-width:9.548;stroke-miterlimit:10;}
	.st10{fill:none;stroke:#687477;stroke-width:0.896;stroke-miterlimit:10;}
	.st11{font-family:'MyriadPro-Regular';}
	.st12{font-size:30.4922px;}
</style>
<symbol  id="Novo_símbolo_1" viewBox="-17.2 -10.5 34.3 21">
	<line class="st0" x1="5.4" y1="6.5" x2="-5.4" y2="-6.5"/>
	<line class="st0" x1="-0.3" y1="9.8" x2="-16.4" y2="-9.5"/>
	<line class="st0" x1="16.4" y1="9.5" x2="0.3" y2="-9.8"/>
</symbol>
<g id="Camada_1">
	<g>
		<polygon class="st5" points="78.3,385.1 404.2,385.1 78.3,64.9 		"/>
		<polygon class="st2" points="81.9,381.6 83.4,70.6 87.2,122.1 104.8,360.9 320.3,381.6 		"/>
		
			<use xlink:href="#Novo_símbolo_1"  width="34.3" height="21" x="-17.2" y="-10.5" transform="matrix(3.5234 0 0 -3.5234 201.1074 309.7717)" style="overflow:visible;"/>
	</g>
		<g style="opacity: 0" id="borda_1_">

	<g>
		<g>
			<g>
				<rect x="48.1" y="362.1" class="st6" width="24.7" height="25.9"/>
				<g>
					<g id="Novo_símbolo_173_">
						<polygon class="st7" points="48.1,388.1 48.1,362.1 72.8,375.1 						"/>
					</g>
				</g>
			</g>
			<g>
				<rect x="48.1" y="325.7" class="st6" width="24.7" height="25.9"/>
				<g>
					<g id="Novo_símbolo_172_">
						<polygon class="st7" points="48.1,351.6 48.1,325.7 72.8,338.7 						"/>
					</g>
				</g>
			</g>
			<g>
				<rect x="48.1" y="289.3" class="st6" width="24.7" height="25.9"/>
				<g>
					<g id="Novo_símbolo_171_">
						<polygon class="st7" points="48.1,315.2 48.1,289.3 72.8,302.2 						"/>
					</g>
				</g>
			</g>
			<g>
				<rect x="48.1" y="252.8" class="st6" width="24.7" height="25.9"/>
				<g>
					<g id="Novo_símbolo_170_">
						<polygon class="st7" points="48.1,278.8 48.1,252.8 72.8,265.8 						"/>
					</g>
				</g>
			</g>
			<g>
				<rect x="48.1" y="216.4" class="st6" width="24.7" height="25.9"/>
				<g>
					<g id="Novo_símbolo_169_">
						<polygon class="st7" points="48.1,242.3 48.1,216.4 72.8,229.4 						"/>
					</g>
				</g>
			</g>
			<g>
				<rect x="48.1" y="180" class="st6" width="24.7" height="25.9"/>
				<g>
					<g id="Novo_símbolo_168_">
						<polygon class="st7" points="48.1,205.9 48.1,180 72.8,192.9 						"/>
					</g>
				</g>
			</g>
			<g>
				<rect x="48.1" y="143.5" class="st6" width="24.7" height="25.9"/>
				<g>
					<g id="Novo_símbolo_167_">
						<polygon class="st7" points="48.1,169.5 48.1,143.5 72.8,156.5 						"/>
					</g>
				</g>
			</g>
			<g>
				<rect x="48.1" y="107.1" class="st6" width="24.7" height="25.9"/>
				<g>
					<g id="Novo_símbolo_166_">
						<polygon class="st7" points="48.1,133 48.1,107.1 72.8,120.1 						"/>
					</g>
				</g>
			</g>
			<g>
				<rect x="48.1" y="70.7" class="st6" width="24.7" height="25.9"/>
				<g>
					<g id="Novo_símbolo_165_">
						<polygon class="st7" points="48.1,96.6 48.1,70.7 72.8,83.6 						"/>
					</g>
				</g>
			</g>
			<g>
				
					<rect x="91.2" y="51.5" transform="matrix(0.701 -0.7132 0.7132 0.701 -15.0132 93.1026)" class="st6" width="24.7" height="25.9"/>
				<g>
					<g id="Novo_símbolo_164_">
						<polygon class="st7" points="102.9,46.6 121.4,64.7 94.9,73.3 						"/>
					</g>
				</g>
			</g>
			<g>
				
					<rect x="117.2" y="77" transform="matrix(0.701 -0.7132 0.7132 0.701 -25.4568 119.2692)" class="st6" width="24.7" height="25.9"/>
				<g>
					<g id="Novo_símbolo_163_">
						<polygon class="st7" points="128.9,72.1 147.4,90.3 120.8,98.8 						"/>
					</g>
				</g>
			</g>
			<g>
				
					<rect x="143.1" y="102.6" transform="matrix(0.701 -0.7132 0.7132 0.701 -35.9005 145.4357)" class="st6" width="24.7" height="25.9"/>
				<g>
					<g id="Novo_símbolo_162_">
						<polygon class="st7" points="154.9,97.6 173.4,115.8 146.8,124.3 						"/>
					</g>
				</g>
			</g>
			<g>
				
					<rect x="169.1" y="128.1" transform="matrix(0.701 -0.7132 0.7132 0.701 -46.3441 171.6023)" class="st6" width="24.7" height="25.9"/>
				<g>
					<g id="Novo_símbolo_161_">
						<polygon class="st7" points="180.9,123.2 199.4,141.4 172.8,149.9 						"/>
					</g>
				</g>
			</g>
			<g>
				
					<rect x="195.1" y="153.6" transform="matrix(0.701 -0.7132 0.7132 0.701 -56.7877 197.7689)" class="st6" width="24.7" height="25.9"/>
				<g>
					<g id="Novo_símbolo_160_">
						<polygon class="st7" points="206.9,148.7 225.4,166.9 198.8,175.4 						"/>
					</g>
				</g>
			</g>
			<g>
				
					<rect x="221.1" y="179.2" transform="matrix(0.701 -0.7132 0.7132 0.701 -67.2314 223.9355)" class="st6" width="24.7" height="25.9"/>
				<g>
					<g id="Novo_símbolo_159_">
						<polygon class="st7" points="232.8,174.2 251.3,192.4 224.8,200.9 						"/>
					</g>
				</g>
			</g>
			<g>
				
					<rect x="247.1" y="204.7" transform="matrix(0.701 -0.7132 0.7132 0.701 -77.675 250.1021)" class="st6" width="24.7" height="25.9"/>
				<g>
					<g id="Novo_símbolo_158_">
						<polygon class="st7" points="258.8,199.8 277.3,218 250.8,226.5 						"/>
					</g>
				</g>
			</g>
			<g>
				
					<rect x="273.1" y="230.2" transform="matrix(0.701 -0.7132 0.7132 0.701 -88.1187 276.2687)" class="st6" width="24.7" height="25.9"/>
				<g>
					<g id="Novo_símbolo_157_">
						<polygon class="st7" points="284.8,225.3 303.3,243.5 276.7,252 						"/>
					</g>
				</g>
			</g>
			<g>
				
					<rect x="299" y="255.8" transform="matrix(0.701 -0.7132 0.7132 0.701 -98.5623 302.4353)" class="st6" width="24.7" height="25.9"/>
				<g>
					<g id="Novo_símbolo_156_">
						<polygon class="st7" points="310.8,250.9 329.3,269 302.7,277.6 						"/>
					</g>
				</g>
			</g>
			<g>
				
					<rect x="325" y="281.3" transform="matrix(0.701 -0.7132 0.7132 0.701 -109.0059 328.6018)" class="st6" width="24.7" height="25.9"/>
				<g>
					<g id="Novo_símbolo_155_">
						<polygon class="st7" points="336.8,276.4 355.3,294.6 328.7,303.1 						"/>
					</g>
				</g>
			</g>
			<g>
				
					<rect x="351" y="306.9" transform="matrix(0.701 -0.7132 0.7132 0.701 -119.4496 354.7684)" class="st6" width="24.7" height="25.9"/>
				<g>
					<g id="Novo_símbolo_154_">
						<polygon class="st7" points="362.7,301.9 381.2,320.1 354.7,328.6 						"/>
					</g>
				</g>
			</g>
			<g>
				
					<rect x="377" y="332.4" transform="matrix(0.701 -0.7132 0.7132 0.701 -129.8932 380.935)" class="st6" width="24.7" height="25.9"/>
				<g>
					<g id="Novo_símbolo_153_">
						<polygon class="st7" points="388.7,327.5 407.2,345.7 380.7,354.2 						"/>
					</g>
				</g>
			</g>
			<g>
				
					<rect x="403" y="357.9" transform="matrix(0.701 -0.7132 0.7132 0.701 -140.3368 407.1016)" class="st6" width="24.7" height="25.9"/>
				<g>
					<g id="Novo_símbolo_152_">
						<polygon class="st7" points="414.7,353 433.2,371.2 406.7,379.7 						"/>
					</g>
				</g>
			</g>
			<g>
				<rect x="356.8" y="390.7" class="st6" width="25.9" height="24.7"/>
				<g>
					<g id="Novo_símbolo_151_">
						<polygon class="st7" points="382.8,415.4 356.8,415.4 369.8,390.7 						"/>
					</g>
				</g>
			</g>
			<g>
				<rect x="320.4" y="390.7" class="st6" width="25.9" height="24.7"/>
				<g>
					<g id="Novo_símbolo_150_">
						<polygon class="st7" points="346.3,415.4 320.4,415.4 333.4,390.7 						"/>
					</g>
				</g>
			</g>
			<g>
				<rect x="284" y="390.7" class="st6" width="25.9" height="24.7"/>
				<g>
					<g id="Novo_símbolo_149_">
						<polygon class="st7" points="309.9,415.4 284,415.4 296.9,390.7 						"/>
					</g>
				</g>
			</g>
			<g>
				<rect x="247.5" y="390.7" class="st6" width="25.9" height="24.7"/>
				<g>
					<g id="Novo_símbolo_148_">
						<polygon class="st7" points="273.5,415.4 247.5,415.4 260.5,390.7 						"/>
					</g>
				</g>
			</g>
			<g>
				<rect x="211.1" y="390.7" class="st6" width="25.9" height="24.7"/>
				<g>
					<g id="Novo_símbolo_147_">
						<polygon class="st7" points="237,415.4 211.1,415.4 224.1,390.7 						"/>
					</g>
				</g>
			</g>
			<g>
				<rect x="174.7" y="390.7" class="st6" width="25.9" height="24.7"/>
				<g>
					<g id="Novo_símbolo_146_">
						<polygon class="st7" points="200.6,415.4 174.7,415.4 187.6,390.7 						"/>
					</g>
				</g>
			</g>
			<g>
				<rect x="138.2" y="390.7" class="st6" width="25.9" height="24.7"/>
				<g>
					<g id="Novo_símbolo_145_">
						<polygon class="st7" points="164.2,415.4 138.2,415.4 151.2,390.7 						"/>
					</g>
				</g>
			</g>
			<g>
				<rect x="101.8" y="390.7" class="st6" width="25.9" height="24.7"/>
				<g>
					<g id="Novo_símbolo_144_">
						<polygon class="st7" points="127.8,415.4 101.8,415.4 114.8,390.7 						"/>
					</g>
				</g>
			</g>
			<g>
				<rect x="65.4" y="390.7" class="st6" width="25.9" height="24.7"/>
				<g>
					<g id="Novo_símbolo_143_">
						<polygon class="st7" points="91.3,415.4 65.4,415.4 78.3,390.7 						"/>
					</g>
				</g>
			</g>
		</g>
	</g>
	</g>
</g>
<g style="opacity: 0" id="cotas">
	<g id="cotas_4_">
		<text transform="matrix(1 0 0 1 6.001 233.9495)" class="st7 st11 st12">A</text>
		<g>
			<g>
				<line class="st10" x1="37.5" y1="70.5" x2="37.5" y2="379.5"/>
				<g>
					<polygon class="st7" points="34.9,72.3 37.5,62.6 40.1,72.3 					"/>
				</g>
				<g>
					<polygon class="st7" points="34.9,377.7 37.5,387.4 40.1,377.7 					"/>
				</g>
			</g>
		</g>
	</g>
	<g id="cotas_3_">
		<text transform="matrix(1 0 0 1 215.817 470.0544)" class="st7 st11 st12">B</text>
		<g>
			<g>
				<line class="st10" x1="86.3" y1="437.9" x2="396.3" y2="437.9"/>
				<g>
					<polygon class="st7" points="88.1,440.5 78.3,437.9 88.1,435.3 					"/>
				</g>
				<g>
					<polygon class="st7" points="394.5,440.5 404.2,437.9 394.5,435.3 					"/>
				</g>
			</g>
		</g>
	</g>
</g>
</svg>
