<svg xmlns="http://www.w3.org/2000/svg" xmlns:xlink="http://www.w3.org/1999/xlink" viewBox="0 0 500 500">
	<defs>
		<style>
			.cls-1{stroke:#fff;stroke-width:3.26px;}.cls-1,.cls-16{stroke-miterlimit:10;}.cls-1,.cls-24{filter:url(#luminosity-invert);}.cls-2{mask:url(#mask);}.cls-10,.cls-11,.cls-12,.cls-3,.cls-4,.cls-5,.cls-6,.cls-7,.cls-8,.cls-9{fill:none;stroke:#1d1e1c;stroke-linecap:round;stroke-dasharray:0
			21.18;}.cls-3{stroke-width:4.07px;}.cls-4{stroke-width:11.4px;}.cls-5{stroke-width:10.59px;}.cls-6{stroke-width:9.77px;}.cls-7{stroke-width:8.96px;}.cls-8{stroke-width:8.14px;}.cls-9{stroke-width:7.33px;}.cls-10{stroke-width:6.52px;}.cls-11{stroke-width:5.7px;}.cls-12{stroke-width:4.88px;}.cls-13{mask:url(#mask-2);}.cls-14{mask:url(#mask-3);}.cls-15{mask:url(#mask-4);}.cls-16{fill:#fff;stroke:#647073;stroke-width:9.56px;}.cls-17{fill:#d1e8ed;}.cls-18,.cls-23{fill:#647073;}.cls-19{mask:url(#mask-5);}.cls-20{fill:url(#Gradiente_sem_nome_61);}.cls-21{mask:url(#mask-6);}.cls-22{fill:url(#Gradiente_sem_nome_61-2);}.cls-23{font-size:153.53px;font-family:MrsEavesAllPetiteCapsOT,
			Mrs Eaves;}
		</style>
		<filter id="luminosity-invert" filterUnits="userSpaceOnUse" color-interpolation-filters="sRGB">
			<feColorMatrix values="-1 0 0 0 1 0 -1 0 0 1 0 0 -1 0 1 0 0 0 1 0"/>
		</filter>
		<mask id="mask" x="209.59" y="14.84" width="262.01" height="477.6" maskUnits="userSpaceOnUse">
			<path class="cls-1" d="M273,490.82H398.6l9-9V16.47H273Z"/>
		</mask>
		<mask id="mask-2" x="22.95" y="14.97" width="262.01" height="477.6" maskUnits="userSpaceOnUse">
			<path class="cls-1" d="M232.82,490.95H109l-9-9V16.6H232.82Z"/>
		</mask>
		<mask id="mask-3" x="375.99" y="14.84" width="199.64" height="477.6" maskUnits="userSpaceOnUse">
			<path class="cls-1" d="M439.4,490.82H565l9-9V16.47H439.4Z"/>
		</mask>
		<mask id="mask-4" x="189.35" y="14.97" width="262.01" height="477.6" maskUnits="userSpaceOnUse">
			<path class="cls-1" d="M399.22,490.95H275.37l-9-9V16.6H399.22Z"/>
		</mask>
		<mask id="mask-5" x="22.95" y="17.18" width="448.65" height="476.3" maskUnits="userSpaceOnUse">
			<g class="cls-24">
				<g class="cls-2">
					<line class="cls-3" x1="469.56" y1="483.34" x2="469.56" y2="29.27"/>
					<line class="cls-4" x1="341.24" y1="461.88" x2="341.24" y2="29.27"/>
					<line class="cls-5" x1="355.5" y1="483.34" x2="355.5" y2="29.27"/>
					<line class="cls-6" x1="369.76" y1="461.88" x2="369.76" y2="29.27"/>
					<line class="cls-7" x1="384.02" y1="483.34" x2="384.02" y2="29.27"/>
					<line class="cls-8" x1="398.27" y1="461.88" x2="398.27" y2="29.27"/>
					<line class="cls-9" x1="412.53" y1="483.34" x2="412.53" y2="29.27"/>
					<line class="cls-10" x1="426.79" y1="461.88" x2="426.79" y2="29.27"/>
					<line class="cls-11" x1="441.05" y1="483.34" x2="441.05" y2="29.27"/>
					<line class="cls-12" x1="455.31" y1="461.88" x2="455.31" y2="29.27"/>
					<line class="cls-3" x1="211.63" y1="483.34" x2="211.63" y2="29.27"/>
					<line class="cls-4" x1="339.95" y1="461.88" x2="339.95" y2="29.27"/>
					<line class="cls-5" x1="325.69" y1="483.34" x2="325.69" y2="29.27"/>
					<line class="cls-6" x1="311.43" y1="461.88" x2="311.43" y2="29.27"/>
					<line class="cls-7" x1="297.17" y1="483.34" x2="297.17" y2="29.27"/>
					<line class="cls-8" x1="282.92" y1="461.88" x2="282.92" y2="29.27"/>
					<line class="cls-9" x1="268.66" y1="483.34" x2="268.66" y2="29.27"/>
					<line class="cls-10" x1="254.4" y1="461.88" x2="254.4" y2="29.27"/>
					<line class="cls-11" x1="240.14" y1="483.34" x2="240.14" y2="29.27"/>
					<line class="cls-12" x1="225.88" y1="461.88" x2="225.88" y2="29.27"/>
				</g>
				<g class="cls-13">
					<line class="cls-3" x1="24.98" y1="476.96" x2="24.98" y2="22.88"/>
					<line class="cls-4" x1="153.3" y1="455.49" x2="153.3" y2="22.88"/>
					<line class="cls-5" x1="139.05" y1="476.96" x2="139.05" y2="22.88"/>
					<line class="cls-6" x1="124.79" y1="455.49" x2="124.79" y2="22.88"/>
					<line class="cls-7" x1="110.53" y1="476.96" x2="110.53" y2="22.88"/>
					<line class="cls-8" x1="96.27" y1="455.49" x2="96.27" y2="22.88"/>
					<line class="cls-9" x1="82.01" y1="476.96" x2="82.01" y2="22.88"/>
					<line class="cls-10" x1="67.75" y1="455.49" x2="67.75" y2="22.88"/>
					<line class="cls-11" x1="53.5" y1="476.96" x2="53.5" y2="22.88"/>
					<line class="cls-12" x1="39.24" y1="455.49" x2="39.24" y2="22.88"/>
					<line class="cls-3" x1="282.92" y1="476.96" x2="282.92" y2="22.88"/>
					<line class="cls-4" x1="154.59" y1="455.49" x2="154.59" y2="22.88"/>
					<line class="cls-5" x1="168.85" y1="476.96" x2="168.85" y2="22.88"/>
					<line class="cls-6" x1="183.11" y1="455.49" x2="183.11" y2="22.88"/>
					<line class="cls-7" x1="197.37" y1="476.96" x2="197.37" y2="22.88"/>
					<line class="cls-8" x1="211.63" y1="455.49" x2="211.63" y2="22.88"/>
					<line class="cls-9" x1="225.89" y1="476.96" x2="225.89" y2="22.88"/>
					<line class="cls-10" x1="240.15" y1="455.49" x2="240.15" y2="22.88"/>
					<line class="cls-11" x1="254.4" y1="476.96" x2="254.4" y2="22.88"/>
					<line class="cls-12" x1="268.66" y1="455.49" x2="268.66" y2="22.88"/>
				</g>
			</g>
		</mask>
		<linearGradient id="Gradiente_sem_nome_61" x1="93.95" y1="256.31" x2="239.65" y2="256.31"
		                gradientUnits="userSpaceOnUse">
			<stop offset="0" stop-color="#2a4b9a" stop-opacity="0"/>
			<stop offset="0.5" stop-color="#e42320" stop-opacity="0.5"/>
			<stop offset="1" stop-color="#2a4b9a" stop-opacity="0"/>
		</linearGradient>
		<mask id="mask-6" x="189.35" y="17.18" width="448.65" height="476.3" maskUnits="userSpaceOnUse">
			<g class="cls-24">
				<g class="cls-14">
					<line class="cls-3" x1="378.03" y1="483.34" x2="378.03" y2="29.27"/>
					<line class="cls-5" x1="492.09" y1="483.34" x2="492.09" y2="29.27"/>
					<line class="cls-6" x1="477.83" y1="461.88" x2="477.83" y2="29.27"/>
					<line class="cls-7" x1="463.57" y1="483.34" x2="463.57" y2="29.27"/>
					<line class="cls-8" x1="449.32" y1="461.88" x2="449.32" y2="29.27"/>
					<line class="cls-9" x1="435.06" y1="483.34" x2="435.06" y2="29.27"/>
					<line class="cls-10" x1="420.8" y1="461.88" x2="420.8" y2="29.27"/>
					<line class="cls-11" x1="406.54" y1="483.34" x2="406.54" y2="29.27"/>
					<line class="cls-12" x1="392.28" y1="461.88" x2="392.28" y2="29.27"/>
				</g>
				<g class="cls-15">
					<line class="cls-3" x1="191.38" y1="476.96" x2="191.38" y2="22.88"/>
					<line class="cls-4" x1="319.7" y1="455.49" x2="319.7" y2="22.88"/>
					<line class="cls-5" x1="305.45" y1="476.96" x2="305.45" y2="22.88"/>
					<line class="cls-6" x1="291.19" y1="455.49" x2="291.19" y2="22.88"/>
					<line class="cls-7" x1="276.93" y1="476.96" x2="276.93" y2="22.88"/>
					<line class="cls-8" x1="262.67" y1="455.49" x2="262.67" y2="22.88"/>
					<line class="cls-9" x1="248.41" y1="476.96" x2="248.41" y2="22.88"/>
					<line class="cls-10" x1="234.15" y1="455.49" x2="234.15" y2="22.88"/>
					<line class="cls-11" x1="219.9" y1="476.96" x2="219.9" y2="22.88"/>
					<line class="cls-12" x1="205.64" y1="455.49" x2="205.64" y2="22.88"/>
					<line class="cls-3" x1="449.32" y1="476.96" x2="449.32" y2="22.88"/>
					<line class="cls-4" x1="320.99" y1="455.49" x2="320.99" y2="22.88"/>
					<line class="cls-5" x1="335.25" y1="476.96" x2="335.25" y2="22.88"/>
					<line class="cls-6" x1="349.51" y1="455.49" x2="349.51" y2="22.88"/>
					<line class="cls-7" x1="363.77" y1="476.96" x2="363.77" y2="22.88"/>
					<line class="cls-8" x1="378.03" y1="455.49" x2="378.03" y2="22.88"/>
					<line class="cls-9" x1="392.29" y1="476.96" x2="392.29" y2="22.88"/>
					<line class="cls-10" x1="406.55" y1="455.49" x2="406.55" y2="22.88"/>
					<line class="cls-11" x1="420.8" y1="476.96" x2="420.8" y2="22.88"/>
					<line class="cls-12" x1="435.06" y1="455.49" x2="435.06" y2="22.88"/>
				</g>
			</g>
		</mask>
		<linearGradient id="Gradiente_sem_nome_61-2" x1="260.35" y1="256.31" x2="406.05" y2="256.31"
		                xlink:href="#Gradiente_sem_nome_61"/>
	</defs>
	<title>tipoDeVidroEspc0</title>
	<g id="Layer_1" data-name="Layer 1">
		<path class="cls-16" d="M238.05,487H104.55l-9-9V23h142.5Z"/>
		<path class="cls-16" d="M262,487h133.5l9-9V23H262Z"/>
		<path class="cls-17"
		      d="M99.11,452.2,96.62,27.5l25.51,3.26,3.47,338c.42,40.71,37.57,96.15,80.06,113.78H129.59A30.48,30.48,0,0,1,99.11,452.2Z"/>
		<path class="cls-17"
		      d="M264.62,482.44,262,27.5l25.51,3.26,3.47,338c.42,40.71,37.57,96.15,80.06,113.78H264.68a.06.06,0,0,1-.06-.1Z"/>
		<rect class="cls-18" x="238.05" y="23.02" width="23.9" height="463.96"/>
	</g>
	<g style="opacity: 0" id="tratmentoTermico">
		<g class="cls-19">
			<g id="tratamentoTermicoLayer">
				<path class="cls-20" d="M239.65,493.48H103l-9-9V19.13H239.65Z"/>
			</g>
		</g>
		<g class="cls-21">
			<g id="tratamentoTermicoLayer-2" data-name="tratamentoTermicoLayer">
				<path class="cls-22" d="M406,493.48H269.35l-9-9V19.13H406Z"/>
			</g>
		</g>
	</g>
	<g style="opacity: 0" id="numeros">
		<text class="cls-23" transform="translate(137.43 282.02)">1</text>
		<text class="cls-23" transform="translate(314.47 282.02)">2</text>
	</g>
</svg>