<?xml version="1.0" encoding="utf-8"?>
<!-- Generator: Adobe Illustrator 21.1.0, SVG Export Plug-In . SVG Version: 6.00 Build 0)  -->
<svg version="1.1" xmlns="http://www.w3.org/2000/svg" xmlns:xlink="http://www.w3.org/1999/xlink" x="0px" y="0px"
	 viewBox="0 0 450 450" style="enable-background:new 0 0 450 450;" xml:space="preserve">
<style type="text/css">
	.st0{fill:#FFFFFF;stroke:#687477;stroke-width:3;stroke-miterlimit:10;}
	.st1{fill:none;stroke:#BAD2D8;stroke-width:2;stroke-miterlimit:10;}
	.st2{fill:#D1E9ED;}
	.st3{fill:#687477;}
	.st4{fill:none;stroke:#9E1010;stroke-width:13.9078;stroke-linecap:square;stroke-miterlimit:10;}
	.st5{font-family:'MyriadArabic-Regular';}
	.st6{font-size:30.4922px;}
	.st7{fill:none;stroke:#687477;stroke-width:0.896;stroke-miterlimit:10;}
</style>
<symbol  id="Novo_símbolo" viewBox="-36.3 -48.9 72.7 97.8">
	<rect x="-34.8" y="-47.4" class="st0" width="69.7" height="94.8"/>
</symbol>
<symbol  id="Novo_símbolo_1" viewBox="-17.2 -10.4 34.3 20.9">
	<line class="st1" x1="5.4" y1="6.5" x2="-5.4" y2="-6.5"/>
	<line class="st1" x1="-0.3" y1="9.8" x2="-16.4" y2="-9.5"/>
	<line class="st1" x1="16.4" y1="9.5" x2="0.3" y2="-9.8"/>
</symbol>
<g id="Layer_1">
	<g id="Camada_1">
		<g>
			
				<use xlink:href="#Novo_símbolo"  width="72.7" height="97.8" x="-36.3" y="-48.9" transform="matrix(4.4149 0 0 -3.756 226.267 208.2419)" style="overflow:visible;"/>
			<polygon class="st2" points="76.7,386.3 78.6,30.1 92.3,71.1 105.3,362.5 375.3,381.9 			"/>
			
				<use xlink:href="#Novo_símbolo_1"  width="34.3" height="20.9" x="-17.2" y="-10.4" transform="matrix(4.4103 0 0 -4.4103 239.2237 182.7912)" style="overflow:visible;"/>
		</g>
		<g id="borda">
		</g>
	</g>
	<g id="direita" style="opacity: 0">
		<polygon class="st3" points="414.4,239.6 414.4,258.1 396.8,248.9 		"/>
		<polygon class="st3" points="414.4,266.3 414.4,284.8 396.8,275.5 		"/>
		<polygon class="st3" points="414.4,292.9 414.4,311.5 396.8,302.2 		"/>
		<polygon class="st3" points="414.4,319.6 414.4,338.1 396.8,328.9 		"/>
		<polygon class="st3" points="414.4,346.3 414.4,364.8 396.8,355.5 		"/>
		<polygon class="st3" points="414.4,372.9 414.4,391.5 396.8,382.2 		"/>
		<polygon class="st3" points="414.4,27 414.4,45.5 396.8,36.3 		"/>
		<polygon class="st3" points="414.4,53.7 414.4,72.2 396.8,62.9 		"/>
		<polygon class="st3" points="414.4,80.3 414.4,98.9 396.8,89.6 		"/>
		<polygon class="st3" points="414.4,107 414.4,125.5 396.8,116.3 		"/>
		<polygon class="st3" points="414.4,133.7 414.4,152.2 396.8,142.9 		"/>
		<polygon class="st3" points="414.4,160.3 414.4,178.9 396.8,169.6 		"/>
		<polygon class="st3" points="414.4,187 414.4,205.5 396.8,196.3 		"/>
		<polygon class="st3" points="414.4,213.7 414.4,232.2 396.8,223 		"/>
	</g>
	<g id="esquerda" style="opacity: 0">
		<polygon class="st3" points="55.7,248.9 38.1,258.1 38.1,239.6 		"/>
		<polygon class="st3" points="55.7,275.5 38.1,284.8 38.1,266.3 		"/>
		<polygon class="st3" points="55.7,302.2 38.1,311.5 38.1,292.9 		"/>
		<polygon class="st3" points="55.7,328.9 38.1,338.1 38.1,319.6 		"/>
		<polygon class="st3" points="55.7,355.5 38.1,364.8 38.1,346.3 		"/>
		<polygon class="st3" points="55.7,382.2 38.1,391.5 38.1,372.9 		"/>
		<polygon class="st3" points="55.7,36.3 38.1,45.5 38.1,27 		"/>
		<polygon class="st3" points="55.7,62.9 38.1,72.2 38.1,53.7 		"/>
		<polygon class="st3" points="55.7,89.6 38.1,98.9 38.1,80.3 		"/>
		<polygon class="st3" points="55.7,116.3 38.1,125.5 38.1,107 		"/>
		<polygon class="st3" points="55.7,142.9 38.1,152.2 38.1,133.7 		"/>
		<polygon class="st3" points="55.7,169.6 38.1,178.9 38.1,160.3 		"/>
		<polygon class="st3" points="55.7,196.3 38.1,205.5 38.1,187 		"/>
		<polygon class="st3" points="55.7,223 38.1,232.2 38.1,213.7 		"/>
	</g>
	<g id="topo" style="opacity: 0">
		<polygon class="st3" points="173.8,19.4 164.6,1.8 183.1,1.8 		"/>
		<polygon class="st3" points="147.2,19.4 137.9,1.8 156.4,1.8 		"/>
		<polygon class="st3" points="120.5,19.4 111.2,1.8 129.8,1.8 		"/>
		<polygon class="st3" points="93.8,19.4 84.6,1.8 103.1,1.8 		"/>
		<polygon class="st3" points="67.2,19.4 57.9,1.8 76.4,1.8 		"/>
		<polygon class="st3" points="386.4,19.4 377.2,1.8 395.7,1.8 		"/>
		<polygon class="st3" points="359.8,19.4 350.5,1.8 369,1.8 		"/>
		<polygon class="st3" points="333.1,19.4 323.8,1.8 342.4,1.8 		"/>
		<polygon class="st3" points="306.4,19.4 297.2,1.8 315.7,1.8 		"/>
		<polygon class="st3" points="279.8,19.4 270.5,1.8 289,1.8 		"/>
		<polygon class="st3" points="253.1,19.4 243.8,1.8 262.4,1.8 		"/>
		<polygon class="st3" points="226.4,19.4 217.2,1.8 235.7,1.8 		"/>
		<polygon class="st3" points="199.7,19.4 190.5,1.8 209,1.8 		"/>
	</g>
	<g id="baixo" style="opacity: 0">
		<polygon class="st3" points="253.1,397.1 262.3,414.7 243.8,414.7 		"/>
		<polygon class="st3" points="279.7,397.1 289,414.7 270.5,414.7 		"/>
		<polygon class="st3" points="306.4,397.1 315.7,414.7 297.1,414.7 		"/>
		<polygon class="st3" points="333.1,397.1 342.3,414.7 323.8,414.7 		"/>
		<polygon class="st3" points="359.7,397.1 369,414.7 350.5,414.7 		"/>
		<polygon class="st3" points="386.4,397.1 395.7,414.7 377.1,414.7 		"/>
		<polygon class="st3" points="67.1,397.1 76.4,414.7 57.9,414.7 		"/>
		<polygon class="st3" points="93.8,397.1 103.1,414.7 84.5,414.7 		"/>
		<polygon class="st3" points="120.5,397.1 129.7,414.7 111.2,414.7 		"/>
		<polygon class="st3" points="147.1,397.1 156.4,414.7 137.9,414.7 		"/>
		<polygon class="st3" points="173.8,397.1 183.1,414.7 164.5,414.7 		"/>
		<polygon class="st3" points="200.5,397.1 209.7,414.7 191.2,414.7 		"/>
		<polygon class="st3" points="227.2,397.1 236.4,414.7 217.9,414.7 		"/>
	</g>
	<g style="opacity: 0"  id="ladoLivreEsquerda">
		<line class="st4" x1="75.2" y1="31.2" x2="75.2" y2="387.3"/>
	</g>
	<g style="opacity: 0"  id="ladoLivreDireita">
		<line class="st4" x1="379.1" y1="31.2" x2="379.1" y2="387.3"/>
	</g>
	<g style="opacity: 0"  id="ladoLivreTopo">
		<line class="st4" x1="75.2" y1="31.2" x2="379.1" y2="31.2"/>
	</g>
	<g style="opacity: 0"  id="ladoLivreBaixo">
		<line class="st4" x1="75.2" y1="387.3" x2="379.1" y2="387.3"/>
	</g>
</g>
<g style="opacity: 0"   id="cotas">
	<g id="cotas_3_">
		<text transform="matrix(1 0 0 1 2.8532 240.1759)" class="st3 st5 st6">A</text>
		<g>
			<g>
				<line class="st7" x1="34.3" y1="31.7" x2="34.3" y2="385.7"/>
				<g>
					<polygon class="st3" points="31.7,33.5 34.3,23.8 36.9,33.5 					"/>
				</g>
				<g>
					<polygon class="st3" points="31.7,383.9 34.3,393.6 36.9,383.9 					"/>
				</g>
			</g>
		</g>
	</g>
	<g id="cotas_2_">
		<text transform="matrix(1 0 0 1 201.4677 445.6553)" class="st3 st5 st6">B</text>
		<g>
			<g>
				<line class="st7" x1="71.7" y1="422.5" x2="387.6" y2="422.5"/>
				<g>
					<polygon class="st3" points="73.5,425.1 63.8,422.5 73.5,419.9 					"/>
				</g>
				<g>
					<polygon class="st3" points="385.9,425.1 395.6,422.5 385.9,419.9 					"/>
				</g>
			</g>
		</g>
	</g>
</g>
</svg>
