<?xml version="1.0" encoding="utf-8"?>
<!-- Generator: Adobe Illustrator 21.1.0, SVG Export Plug-In . SVG Version: 6.00 Build 0)  -->
<svg version="1.1" xmlns="http://www.w3.org/2000/svg" xmlns:xlink="http://www.w3.org/1999/xlink" x="0px" y="0px"
	 viewBox="0 0 450 476" style="enable-background:new 0 0 450 476;" xml:space="preserve">
<style type="text/css">
	.st0{fill:none;stroke:#BAD2D8;stroke-width:2;stroke-miterlimit:10;}
	.st1{fill:#FFFFFF;stroke:#687477;stroke-width:3;stroke-miterlimit:10;}
	.st2{fill:#D1E9ED;}
	.st3{fill:#FFFFFF;stroke:#687477;stroke-width:11.0466;stroke-miterlimit:10;}
	.st4{fill:#FFFFFF;stroke:#687477;stroke-width:10.6879;stroke-miterlimit:10;}
	.st5{fill:#FFFFFF;stroke:#687477;stroke-width:10.5703;stroke-miterlimit:10;}
	.st6{fill:none;}
	.st7{fill:#687477;}
	.st8{fill:#FFFFFF;stroke:#687477;stroke-width:11.1126;stroke-miterlimit:10;}
	.st9{fill:#FFFFFF;stroke:#687477;stroke-width:9.548;stroke-miterlimit:10;}
	.st10{font-family:'MyriadPro-Regular';}
	.st11{font-size:30.4922px;}
	.st12{fill:none;stroke:#687477;stroke-width:0.896;stroke-miterlimit:10;}
</style>
<symbol  id="Novo_símbolo_1" viewBox="-17.2 -10.5 34.3 21">
	<line class="st0" x1="5.4" y1="6.5" x2="-5.4" y2="-6.5"/>
	<line class="st0" x1="-0.3" y1="9.8" x2="-16.4" y2="-9.5"/>
	<line class="st0" x1="16.4" y1="9.5" x2="0.3" y2="-9.8"/>
</symbol>
<g id="Camada_1">
	<g>
		<circle class="st4" cx="225" cy="225" r="166.5"/>
		<g>
			<path class="st2" d="M92.4,225c0-89.4,44.2-162.5,132.6-166.5c-2.5-0.1,7,0,4.5,0C137.6,58.5,63,133.1,63,225
				c0,91.9,74.5,166.5,166.5,166.5c2.5,0-7,0.1-4.5,0C136.6,387.5,92.4,314.4,92.4,225z"/>
		</g>
		
			<use xlink:href="#Novo_símbolo_1"  width="34.3" height="21" x="-17.2" y="-10.5" transform="matrix(4.2321 0 0 -5.7736 236.5681 224.2565)" style="overflow:visible;"/>
	</g>
	<g style="opacity: 0" id="borda_1_">
		<g>
			<g>
				<g>
					
						<rect x="393.6" y="167.9" transform="matrix(0.9739 -0.227 0.227 0.9739 -30.6321 97.0505)" class="st6" width="26.3" height="27.6"/>
					<g>
						<g id="Novo_símbolo_77_">
							<polygon class="st7" points="416.3,165.3 422.6,192.2 393.9,184.7 							"/>
						</g>
					</g>
				</g>
				<g>
					
						<rect x="374.8" y="121.2" transform="matrix(0.8439 -0.5365 0.5365 0.8439 -11.8756 229.2269)" class="st6" width="26.3" height="27.6"/>
					<g>
						<g id="Novo_símbolo_76_">
							<polygon class="st7" points="391.6,116.3 406.4,139.6 376.9,142.1 							"/>
						</g>
					</g>
				</g>
				<g>
					
						<rect x="346.2" y="82.8" transform="matrix(0.7071 -0.7071 0.7071 0.7071 36.9515 282.3657)" class="st6" width="26.3" height="27.6"/>
					<g>
						<g id="Novo_símbolo_75_">
							<polygon class="st7" points="358.8,77.5 378.4,97.1 350,105.9 							"/>
						</g>
					</g>
				</g>
				<g>
					
						<rect x="308.9" y="52.7" transform="matrix(0.5365 -0.8439 0.8439 0.5365 93.1146 302.5786)" class="st6" width="26.3" height="27.6"/>
					<g>
						<g id="Novo_símbolo_74_">
							<polygon class="st7" points="317.4,48 340.7,62.8 315,77.6 							"/>
						</g>
					</g>
				</g>
				<g>
					
						<rect x="265.2" y="33" transform="matrix(0.3366 -0.9417 0.9417 0.3366 140.593 293.069)" class="st6" width="26.3" height="27.6"/>
					<g>
						<g id="Novo_símbolo_73_">
							<polygon class="st7" points="269.7,29.7 295.7,39 273.9,59.1 							"/>
						</g>
					</g>
				</g>
				<g>
					
						<rect x="217.7" y="25" transform="matrix(0.1144 -0.9934 0.9934 0.1144 165.8885 263.5956)" class="st6" width="26.3" height="27.6"/>
					<g>
						<g id="Novo_símbolo_72_">
							<polygon class="st7" points="218.6,24.1 246,27.3 229.3,51.8 							"/>
						</g>
					</g>
				</g>
				<g>
					
						<rect x="164.7" y="31.2" transform="matrix(0.9417 -0.3366 0.3366 0.9417 -4.5161 62.6478)" class="st6" width="27.6" height="26.3"/>
					<g>
						<g id="Novo_símbolo_71_">
							<polygon class="st7" points="161,36.6 187,27.3 182.9,56.7 							"/>
						</g>
					</g>
				</g>
				<g>
					
						<rect x="120.2" y="49.6" transform="matrix(0.8439 -0.5365 0.5365 0.8439 -12.7088 81.6874)" class="st6" width="27.6" height="26.3"/>
					<g>
						<g id="Novo_símbolo_70_">
							<polygon class="st7" points="115.3,59 138.6,44.2 141.1,73.8 							"/>
						</g>
					</g>
				</g>
				<g>
					
						<rect x="81.9" y="78.4" transform="matrix(0.7071 -0.7071 0.7071 0.7071 -36.6752 94.5014)" class="st6" width="27.6" height="26.3"/>
					<g>
						<g id="Novo_símbolo_69_">
							<polygon class="st7" points="76.7,92 96.2,72.5 105,100.8 							"/>
						</g>
					</g>
				</g>
				<g>
					
						<rect x="52.1" y="115.9" transform="matrix(0.5365 -0.8439 0.8439 0.5365 -78.3149 115.3763)" class="st6" width="27.6" height="26.3"/>
					<g>
						<g id="Novo_símbolo_68_">
							<polygon class="st7" points="47.4,133.6 62.2,110.3 77,136 							"/>
						</g>
					</g>
				</g>
				<g>
					
						<rect x="32.6" y="159.7" transform="matrix(0.3366 -0.9417 0.9417 0.3366 -132.0011 158.3195)" class="st6" width="27.6" height="26.3"/>
					<g>
						<g id="Novo_símbolo_67_">
							<polygon class="st7" points="29.3,181.4 38.6,155.4 58.7,177.3 							"/>
						</g>
					</g>
				</g>
				<g>
					
						<rect x="24.8" y="207.3" transform="matrix(0.1144 -0.9934 0.9934 0.1144 -184.7456 233.5321)" class="st6" width="27.6" height="26.3"/>
					<g>
						<g id="Novo_símbolo_66_">
							<polygon class="st7" points="24,232.6 27.1,205.2 51.7,221.9 							"/>
						</g>
					</g>
				</g>
				<g>
					
						<rect x="31.6" y="258.9" transform="matrix(0.9417 -0.3366 0.3366 0.9417 -89.1609 30.9695)" class="st6" width="26.3" height="27.6"/>
					<g>
						<g id="Novo_símbolo_65_">
							<polygon class="st7" points="37,290.1 27.7,264.1 57.1,268.3 							"/>
						</g>
					</g>
				</g>
				<g>
					
						<rect x="50.2" y="303.2" transform="matrix(0.8439 -0.5365 0.5365 0.8439 -160.188 83.4605)" class="st6" width="26.3" height="27.6"/>
					<g>
						<g id="Novo_símbolo_64_">
							<polygon class="st7" points="59.6,335.7 44.8,312.4 74.4,309.9 							"/>
						</g>
					</g>
				</g>
				<g>
					
						<rect x="79.2" y="341.3" transform="matrix(0.7071 -0.7071 0.7071 0.7071 -224.0458 169.3199)" class="st6" width="26.3" height="27.6"/>
					<g>
						<g id="Novo_símbolo_63_">
							<polygon class="st7" points="92.8,374.2 73.3,354.6 101.6,345.8 							"/>
						</g>
					</g>
				</g>
				<g>
					
						<rect x="116.9" y="371" transform="matrix(0.5365 -0.8439 0.8439 0.5365 -264.4456 288.0246)" class="st6" width="26.3" height="27.6"/>
					<g>
						<g id="Novo_símbolo_62_">
							<polygon class="st7" points="134.6,403.2 111.3,388.4 137,373.7 							"/>
						</g>
					</g>
				</g>
				<g>
					
						<rect x="160.8" y="390.2" transform="matrix(0.3366 -0.9417 0.9417 0.3366 -265.0607 431.8698)" class="st6" width="26.3" height="27.6"/>
					<g>
						<g id="Novo_símbolo_33_">
							<polygon class="st7" points="182.5,421.1 156.5,411.8 178.4,391.7 							"/>
						</g>
					</g>
				</g>
				<g>
					
						<rect x="208.4" y="397.7" transform="matrix(0.1144 -0.9934 0.9934 0.1144 -212.5989 584.5503)" class="st6" width="26.3" height="27.6"/>
					<g>
						<g id="Novo_símbolo_32_">
							<polygon class="st7" points="233.8,426.1 206.4,423 223.1,398.5 							"/>
						</g>
					</g>
				</g>
				<g>
					
						<rect x="260" y="391.7" transform="matrix(0.9417 -0.3366 0.3366 0.9417 -120.2843 115.7682)" class="st6" width="27.6" height="26.3"/>
					<g>
						<g id="Novo_símbolo_31_">
							<polygon class="st7" points="291.2,412.6 265.2,421.9 269.4,392.5 							"/>
						</g>
					</g>
				</g>
				<g>
					
						<rect x="304.2" y="372.9" transform="matrix(0.8439 -0.5365 0.5365 0.8439 -157.4749 230.8795)" class="st6" width="27.6" height="26.3"/>
					<g>
						<g id="Novo_símbolo_30_">
							<polygon class="st7" points="336.7,389.7 313.4,404.5 311,375 							"/>
						</g>
					</g>
				</g>
				<g>
					
						<rect x="342.2" y="343.7" transform="matrix(0.7071 -0.7071 0.7071 0.7071 -148.0353 356.1968)" class="st6" width="27.6" height="26.3"/>
					<g>
						<g id="Novo_símbolo_29_">
							<polygon class="st7" points="375,356.3 355.5,375.8 346.7,347.5 							"/>
						</g>
					</g>
				</g>
				<g>
					
						<rect x="371.6" y="305.9" transform="matrix(0.5365 -0.8439 0.8439 0.5365 -90.5786 473.0835)" class="st6" width="27.6" height="26.3"/>
					<g>
						<g id="Novo_símbolo_28_">
							<polygon class="st7" points="403.9,314.4 389.1,337.7 374.3,312 							"/>
						</g>
					</g>
				</g>
				<g>
					
						<rect x="390.6" y="261.8" transform="matrix(0.3366 -0.9417 0.9417 0.3366 9.4458 563.2394)" class="st6" width="27.6" height="26.3"/>
					<g>
						<g id="Novo_símbolo_27_">
							<polygon class="st7" points="421.5,266.3 412.2,292.3 392.1,270.5 							"/>
						</g>
					</g>
				</g>
				<g>
					
						<rect x="397.9" y="214.1" transform="matrix(0.1144 -0.9934 0.9934 0.1144 138.8031 610.1933)" class="st6" width="27.6" height="26.3"/>
					<g>
						<g id="Novo_símbolo_26_">
							<polygon class="st7" points="426.3,215 423.1,242.5 398.6,225.7 							"/>
						</g>
					</g>
				</g>
			</g>
		</g>
	</g>
</g>
<g style="opacity: 0" id="cotas">
	<g id="cotas_11_">
		<text transform="matrix(1 0 0 1 237.3472 467.0532)" class="st7 st10 st11">A</text>
		<g>
			<g>
				<line class="st12" x1="92.2" y1="437.9" x2="401.1" y2="437.9"/>
				<g>
					<polygon class="st7" points="94,440.5 84.3,437.9 94,435.3 					"/>
				</g>
				<g>
					<polygon class="st7" points="399.4,440.5 409.1,437.9 399.4,435.3 					"/>
				</g>
			</g>
		</g>
	</g>
</g>
</svg>
