<?xml version="1.0" encoding="utf-8"?>
<!-- Generator: Adobe Illustrator 21.1.0, SVG Export Plug-In . SVG Version: 6.00 Build 0)  -->
<svg version="1.1" xmlns="http://www.w3.org/2000/svg" xmlns:xlink="http://www.w3.org/1999/xlink" x="0px" y="0px"
	 viewBox="0 0 450 476" style="enable-background:new 0 0 450 476;" xml:space="preserve">
<style type="text/css">
	.st0{fill:none;stroke:#BAD2D8;stroke-width:2;stroke-miterlimit:10;}
	.st1{fill:#FFFFFF;stroke:#687477;stroke-width:3;stroke-miterlimit:10;}
	.st2{fill:#D1E9ED;}
	.st3{fill:#FFFFFF;stroke:#687477;stroke-width:11.0466;stroke-miterlimit:10;}
	.st4{fill:#FFFFFF;stroke:#687477;stroke-width:10.6879;stroke-miterlimit:10;}
	.st5{fill:#FFFFFF;stroke:#687477;stroke-width:10.5703;stroke-miterlimit:10;}
	.st6{fill:none;}
	.st7{fill:#687477;}
	.st8{fill:#FFFFFF;stroke:#687477;stroke-width:11.1126;stroke-miterlimit:10;}
	.st9{fill:#FFFFFF;stroke:#687477;stroke-width:9.548;stroke-miterlimit:10;}
	.st10{fill:none;stroke:#687477;stroke-width:0.896;stroke-miterlimit:10;}
	.st11{font-family:'MyriadPro-Regular';}
	.st12{font-size:30.4922px;}
</style>
<symbol  id="Novo_símbolo_1" viewBox="-17.2 -10.5 34.3 21">
	<line class="st0" x1="5.4" y1="6.5" x2="-5.4" y2="-6.5"/>
	<line class="st0" x1="-0.3" y1="9.8" x2="-16.4" y2="-9.5"/>
	<line class="st0" x1="16.4" y1="9.5" x2="0.3" y2="-9.8"/>
</symbol>
<g id="Camada_1">
	<g>
		<path class="st9" d="M420.3,389.4H56.7L238.5,60.6L420.3,389.4z"/>
		<polygon class="st2" points="59.6,385.9 236.8,65.7 238,83.1 80.3,367.1 275,385.9 		"/>
		
			<use xlink:href="#Novo_símbolo_1"  width="34.3" height="21" x="-17.2" y="-10.5" transform="matrix(3.1827 0 0 -3.1827 238.4764 321.3521)" style="overflow:visible;"/>
	</g>
		<g style="opacity: 0" id="borda_1_">

	<g>
		<g>
			<g>
				<g>
					
						<rect x="415.6" y="350.4" transform="matrix(0.8752 -0.4838 0.4838 0.8752 -122.6732 252.8823)" class="st6" width="26.3" height="27.6"/>
					<g>
						<g id="Novo_símbolo_133_">
							<polygon class="st7" points="433.5,345.7 446.9,369.9 417.2,370.5 							"/>
						</g>
					</g>
				</g>
				<g>
					
						<rect x="394.3" y="312" transform="matrix(0.8752 -0.4838 0.4838 0.8752 -106.7422 237.815)" class="st6" width="26.3" height="27.6"/>
					<g>
						<g id="Novo_símbolo_132_">
							<polygon class="st7" points="412.3,307.3 425.6,331.5 396,332.1 							"/>
						</g>
					</g>
				</g>
				<g>
					
						<rect x="373.1" y="273.5" transform="matrix(0.8752 -0.4838 0.4838 0.8752 -90.8113 222.7477)" class="st6" width="26.3" height="27.6"/>
					<g>
						<g id="Novo_símbolo_131_">
							<polygon class="st7" points="391.1,268.9 404.4,293.1 374.7,293.7 							"/>
						</g>
					</g>
				</g>
				<g>
					
						<rect x="351.9" y="235.1" transform="matrix(0.8752 -0.4838 0.4838 0.8752 -74.8803 207.6804)" class="st6" width="26.3" height="27.6"/>
					<g>
						<g id="Novo_símbolo_130_">
							<polygon class="st7" points="369.8,230.5 383.2,254.7 353.5,255.3 							"/>
						</g>
					</g>
				</g>
				<g>
					
						<rect x="330.6" y="196.7" transform="matrix(0.8752 -0.4838 0.4838 0.8752 -58.9494 192.6131)" class="st6" width="26.3" height="27.6"/>
					<g>
						<g id="Novo_símbolo_129_">
							<polygon class="st7" points="348.6,192.1 361.9,216.3 332.3,216.9 							"/>
						</g>
					</g>
				</g>
				<g>
					
						<rect x="309.4" y="158.3" transform="matrix(0.8752 -0.4838 0.4838 0.8752 -43.0184 177.5458)" class="st6" width="26.3" height="27.6"/>
					<g>
						<g id="Novo_símbolo_128_">
							<polygon class="st7" points="327.4,153.7 340.7,177.9 311.1,178.5 							"/>
						</g>
					</g>
				</g>
				<g>
					
						<rect x="288.2" y="119.9" transform="matrix(0.8752 -0.4838 0.4838 0.8752 -27.0875 162.4785)" class="st6" width="26.3" height="27.6"/>
					<g>
						<g id="Novo_símbolo_127_">
							<polygon class="st7" points="306.1,115.3 319.5,139.5 289.8,140.1 							"/>
						</g>
					</g>
				</g>
				<g>
					
						<rect x="266.9" y="81.5" transform="matrix(0.8752 -0.4838 0.4838 0.8752 -11.1565 147.4112)" class="st6" width="26.3" height="27.6"/>
					<g>
						<g id="Novo_símbolo_126_">
							<polygon class="st7" points="284.9,76.9 298.2,101 268.6,101.7 							"/>
						</g>
					</g>
				</g>
				<g>
					
						<rect x="245.7" y="43.1" transform="matrix(0.8752 -0.4838 0.4838 0.8752 4.7745 132.3439)" class="st6" width="26.3" height="27.6"/>
					<g>
						<g id="Novo_símbolo_125_">
							<polygon class="st7" points="263.7,38.5 277,62.6 247.4,63.3 							"/>
						</g>
					</g>
				</g>
				<g>
					
						<rect x="189.5" y="70.5" transform="matrix(0.4838 -0.8752 0.8752 0.4838 31.7139 221.124)" class="st6" width="27.6" height="26.3"/>
					<g>
						<g id="Novo_símbolo_124_">
							<polygon class="st7" points="185.1,89.4 198.5,65.2 214.8,90 							"/>
						</g>
					</g>
				</g>
				<g>
					
						<rect x="168.3" y="109" transform="matrix(0.4838 -0.8752 0.8752 0.4838 -12.8559 222.3658)" class="st6" width="27.6" height="26.3"/>
					<g>
						<g id="Novo_símbolo_123_">
							<polygon class="st7" points="163.9,127.8 177.3,103.7 193.6,128.4 							"/>
						</g>
					</g>
				</g>
				<g>
					
						<rect x="147.1" y="147.4" transform="matrix(0.4838 -0.8752 0.8752 0.4838 -57.4257 223.6076)" class="st6" width="27.6" height="26.3"/>
					<g>
						<g id="Novo_símbolo_122_">
							<polygon class="st7" points="142.7,166.2 156,142.1 172.3,166.8 							"/>
						</g>
					</g>
				</g>
				<g>
					
						<rect x="125.8" y="185.8" transform="matrix(0.4838 -0.8752 0.8752 0.4838 -101.9956 224.8494)" class="st6" width="27.6" height="26.3"/>
					<g>
						<g id="Novo_símbolo_121_">
							<polygon class="st7" points="121.4,204.6 134.8,180.5 151.1,205.2 							"/>
						</g>
					</g>
				</g>
				<g>
					
						<rect x="104.6" y="224.2" transform="matrix(0.4838 -0.8752 0.8752 0.4838 -146.5654 226.0912)" class="st6" width="27.6" height="26.3"/>
					<g>
						<g id="Novo_símbolo_120_">
							<polygon class="st7" points="100.2,243 113.6,218.9 129.9,243.6 							"/>
						</g>
					</g>
				</g>
				<g>
					
						<rect x="83.4" y="262.6" transform="matrix(0.4838 -0.8752 0.8752 0.4838 -191.1352 227.3329)" class="st6" width="27.6" height="26.3"/>
					<g>
						<g id="Novo_símbolo_119_">
							<polygon class="st7" points="79,281.4 92.3,257.3 108.6,282.1 							"/>
						</g>
					</g>
				</g>
				<g>
					
						<rect x="62.1" y="301" transform="matrix(0.4838 -0.8752 0.8752 0.4838 -235.7051 228.5747)" class="st6" width="27.6" height="26.3"/>
					<g>
						<g id="Novo_símbolo_118_">
							<polygon class="st7" points="57.8,319.8 71.1,295.7 87.4,320.5 							"/>
						</g>
					</g>
				</g>
				<g>
					
						<rect x="40.9" y="339.4" transform="matrix(0.4838 -0.8752 0.8752 0.4838 -280.2749 229.8165)" class="st6" width="27.6" height="26.3"/>
					<g>
						<g id="Novo_símbolo_117_">
							<polygon class="st7" points="36.5,358.2 49.9,334.1 66.2,358.9 							"/>
						</g>
					</g>
				</g>
				<g>
					<rect x="55.4" y="395.9" class="st6" width="27.6" height="26.3"/>
					<g>
						<g id="Novo_símbolo_116_">
							<polygon class="st7" points="83,422.2 55.4,422.2 69.2,395.9 							"/>
						</g>
					</g>
				</g>
				<g>
					<rect x="99.3" y="395.9" class="st6" width="27.6" height="26.3"/>
					<g>
						<g id="Novo_símbolo_115_">
							<polygon class="st7" points="126.9,422.2 99.3,422.2 113.1,395.9 							"/>
						</g>
					</g>
				</g>
				<g>
					<rect x="143.2" y="395.9" class="st6" width="27.6" height="26.3"/>
					<g>
						<g id="Novo_símbolo_85_">
							<polygon class="st7" points="170.8,422.2 143.2,422.2 157,395.9 							"/>
						</g>
					</g>
				</g>
				<g>
					<rect x="187.1" y="395.9" class="st6" width="27.6" height="26.3"/>
					<g>
						<g id="Novo_símbolo_84_">
							<polygon class="st7" points="214.7,422.2 187.1,422.2 200.9,395.9 							"/>
						</g>
					</g>
				</g>
				<g>
					<rect x="230.9" y="395.9" class="st6" width="27.6" height="26.3"/>
					<g>
						<g id="Novo_símbolo_83_">
							<polygon class="st7" points="258.5,422.2 230.9,422.2 244.7,395.9 							"/>
						</g>
					</g>
				</g>
				<g>
					<rect x="274.8" y="395.9" class="st6" width="27.6" height="26.3"/>
					<g>
						<g id="Novo_símbolo_37_">
							<polygon class="st7" points="302.4,422.2 274.8,422.2 288.6,395.9 							"/>
						</g>
					</g>
				</g>
				<g>
					<rect x="318.7" y="395.9" class="st6" width="27.6" height="26.3"/>
					<g>
						<g id="Novo_símbolo_36_">
							<polygon class="st7" points="346.3,422.2 318.7,422.2 332.5,395.9 							"/>
						</g>
					</g>
				</g>
				<g>
					<rect x="362.6" y="395.9" class="st6" width="27.6" height="26.3"/>
					<g>
						<g id="Novo_símbolo_35_">
							<polygon class="st7" points="390.2,422.2 362.6,422.2 376.4,395.9 							"/>
						</g>
					</g>
				</g>
				<g>
					<rect x="406.5" y="395.9" class="st6" width="27.6" height="26.3"/>
					<g>
						<g id="Novo_símbolo_34_">
							<polygon class="st7" points="434.1,422.2 406.5,422.2 420.3,395.9 							"/>
						</g>
					</g>
				</g>
			</g>
		</g>
	</g>
	</g>
</g>
<g style="opacity: 0" id="cotas">
	<g id="cotas_2_">
		<text transform="matrix(1 0 0 1 3.0004 233.9495)" class="st7 st11 st12">A</text>
		<g>
			<g>
				<line class="st10" x1="34.5" y1="70.6" x2="34.5" y2="379.5"/>
				<g>
					<polygon class="st7" points="31.9,72.4 34.5,62.7 37.1,72.4 					"/>
				</g>
				<g>
					<polygon class="st7" points="31.9,377.7 34.5,387.4 37.1,377.7 					"/>
				</g>
			</g>
		</g>
	</g>
	<g id="cotas_1_">
		<text transform="matrix(1 0 0 1 216.7373 470.0544)" class="st7 st11 st12">B</text>
		<g>
			<g>
				<line class="st10" x1="64.6" y1="437.9" x2="412.3" y2="437.9"/>
				<g>
					<polygon class="st7" points="66.4,440.5 56.7,437.9 66.4,435.3 					"/>
				</g>
				<g>
					<polygon class="st7" points="410.6,440.5 420.3,437.9 410.6,435.3 					"/>
				</g>
			</g>
		</g>
	</g>
</g>
</svg>
