<?xml version="1.0" encoding="utf-8"?>
<!-- Generator: Adobe Illustrator 21.1.0, SVG Export Plug-In . SVG Version: 6.00 Build 0)  -->
<svg version="1.1" xmlns="http://www.w3.org/2000/svg" xmlns:xlink="http://www.w3.org/1999/xlink" x="0px" y="0px"
	 viewBox="0 0 450 476" style="enable-background:new 0 0 450 476;" xml:space="preserve">
<style type="text/css">
	.st0{fill:none;stroke:#BAD2D8;stroke-width:2;stroke-miterlimit:10;}
	.st1{fill:#FFFFFF;stroke:#687477;stroke-width:3;stroke-miterlimit:10;}
	.st2{fill:#D1E9ED;}
	.st3{fill:#FFFFFF;stroke:#687477;stroke-width:11.0466;stroke-miterlimit:10;}
	.st4{fill:#FFFFFF;stroke:#687477;stroke-width:10.6879;stroke-miterlimit:10;}
	.st5{fill:#FFFFFF;stroke:#687477;stroke-width:10.5703;stroke-miterlimit:10;}
	.st6{fill:none;}
	.st7{fill:#687477;}
	.st8{fill:#FFFFFF;stroke:#687477;stroke-width:11.1126;stroke-miterlimit:10;}
	.st9{fill:#FFFFFF;stroke:#687477;stroke-width:9.548;stroke-miterlimit:10;}
	.st10{fill:none;stroke:#687477;stroke-width:0.896;stroke-miterlimit:10;}
	.st11{font-family:'MyriadPro-Regular';}
	.st12{font-size:30.4922px;}
</style>
<symbol  id="Novo_símbolo_1" viewBox="-17.2 -10.5 34.3 21">
	<line class="st0" x1="5.4" y1="6.5" x2="-5.4" y2="-6.5"/>
	<line class="st0" x1="-0.3" y1="9.8" x2="-16.4" y2="-9.5"/>
	<line class="st0" x1="16.4" y1="9.5" x2="0.3" y2="-9.8"/>
</symbol>
<g id="Camada_1">
	<g>
		<path class="st3" d="M96.7,387.4h256.6l0-196.5c0-74-62.4-132.6-136.2-128l0,0c-67.7,4.2-120.4,60.3-120.4,128L96.7,387.4z"/>
		<path class="st2" d="M106.8,206.2c-1-21.6,2.2-43.2,9.6-63.6c4.2-11.4,8.9-22.2,12.9-30c-16,17.8-29,54.4-29,78.3l-3.7,196.5
			l251.8-6l-226.9-19L106.8,206.2z"/>
		
			<use xlink:href="#Novo_símbolo_1"  width="34.3" height="21" x="-17.2" y="-10.5" transform="matrix(3.6822 0 0 -5.7479 229.6028 241.0143)" style="overflow:visible;"/>
	</g>
	<g style="opacity: 0"  id="borda_1_">
		<g id="borda">
			<g>
				<g>
					<rect x="66.4" y="343" class="st6" width="24.7" height="25.9"/>
					<g>
						<g id="Novo_símbolo_140_">
							<polygon class="st7" points="66.4,368.9 66.4,343 91.1,355.9 							"/>
						</g>
					</g>
				</g>
				<g>
					<rect x="66.4" y="306.5" class="st6" width="24.7" height="25.9"/>
					<g>
						<g id="Novo_símbolo_139_">
							<polygon class="st7" points="66.4,332.5 66.4,306.5 91.1,319.5 							"/>
						</g>
					</g>
				</g>
				<g>
					<rect x="66.4" y="270.1" class="st6" width="24.7" height="25.9"/>
					<g>
						<g id="Novo_símbolo_138_">
							<polygon class="st7" points="66.4,296 66.4,270.1 91.1,283.1 							"/>
						</g>
					</g>
				</g>
				<g>
					<rect x="66.4" y="233.7" class="st6" width="24.7" height="25.9"/>
					<g>
						<g id="Novo_símbolo_114_">
							<polygon class="st7" points="66.4,259.6 66.4,233.7 91.1,246.6 							"/>
						</g>
					</g>
				</g>
				<g>
					<rect x="66.4" y="197.2" class="st6" width="24.7" height="25.9"/>
					<g>
						<g id="Novo_símbolo_113_">
							<polygon class="st7" points="66.4,223.2 66.4,197.2 91.1,210.2 							"/>
						</g>
					</g>
				</g>
				<g>
					
						<rect x="68.1" y="159.3" transform="matrix(0.1279 -0.9918 0.9918 0.1279 -99.4714 230.1134)" class="st6" width="25.9" height="24.7"/>
					<g>
						<g id="Novo_símbolo_112_">
							<polygon class="st7" points="67.2,182.9 70.5,157.2 93.3,173.2 							"/>
						</g>
					</g>
				</g>
				<g>
					
						<rect x="79" y="120" transform="matrix(0.3739 -0.9275 0.9275 0.3739 -65.2044 168.1927)" class="st6" width="25.9" height="24.7"/>
					<g>
						<g id="Novo_símbolo_111_">
							<polygon class="st7" points="75.7,139.8 85.4,115.7 103.4,137 							"/>
						</g>
					</g>
				</g>
				<g>
					
						<rect x="100.2" y="85.4" transform="matrix(0.5906 -0.807 0.807 0.5906 -32.5282 131.3377)" class="st6" width="25.9" height="24.7"/>
					<g>
						<g id="Novo_símbolo_110_">
							<polygon class="st7" points="95.5,100.9 110.9,80 123.1,105 							"/>
						</g>
					</g>
				</g>
				<g>
					
						<rect x="130.1" y="57.8" transform="matrix(0.7691 -0.6391 0.6391 0.7691 -11.8016 107.5973)" class="st6" width="25.9" height="24.7"/>
					<g>
						<g id="Novo_símbolo_109_">
							<polygon class="st7" points="125.2,68.9 145.1,52.3 150.9,79.6 							"/>
						</g>
					</g>
				</g>
				<g>
					
						<rect x="171" y="38.6" transform="matrix(0.9821 -0.1886 0.1886 0.9821 -6.3046 35.6149)" class="st6" width="25.9" height="24.7"/>
					<g>
						<g id="Novo_símbolo_108_">
							<polygon class="st7" points="168.9,41.3 194.4,36.4 186.3,63.1 							"/>
						</g>
					</g>
				</g>
				<g>
					
						<rect x="212.3" y="32.5" transform="matrix(7.731787e-02 -0.997 0.997 7.731787e-02 161.9608 265.8616)" class="st6" width="24.7" height="25.9"/>
					<g>
						<g id="Novo_símbolo_107_">
							<polygon class="st7" points="212.6,32.1 238.5,34.1 223.7,57.7 							"/>
						</g>
					</g>
				</g>
				<g>
					
						<rect x="253" y="38.1" transform="matrix(0.3466 -0.938 0.938 0.3466 125.4365 282.3216)" class="st6" width="24.7" height="25.9"/>
					<g>
						<g id="Novo_símbolo_106_">
							<polygon class="st7" points="257.5,35 281.8,44 261.1,62.7 							"/>
						</g>
					</g>
				</g>
				<g>
					
						<rect x="290.4" y="55.1" transform="matrix(0.5829 -0.8125 0.8125 0.5829 70.96 274.3275)" class="st6" width="24.7" height="25.9"/>
					<g>
						<g id="Novo_símbolo_105_">
							<polygon class="st7" points="299.4,50.5 320.4,65.6 295.5,78.1 							"/>
						</g>
					</g>
				</g>
				<g>
					
						<rect x="321.4" y="81.7" transform="matrix(0.7751 -0.6318 0.6318 0.7751 15.258 232.1523)" class="st6" width="24.7" height="25.9"/>
					<g>
						<g id="Novo_símbolo_104_">
							<polygon class="st7" points="335.1,76.8 351.5,96.9 324.2,102.4 							"/>
						</g>
					</g>
				</g>
				<g>
					
						<rect x="343.9" y="115.9" transform="matrix(0.9149 -0.4037 0.4037 0.9149 -21.7005 154.7577)" class="st6" width="24.7" height="25.9"/>
					<g>
						<g id="Novo_símbolo_103_">
							<polygon class="st7" points="362.3,112 372.7,135.7 344.9,133.8 							"/>
						</g>
					</g>
				</g>
				<g>
					
						<rect x="355.9" y="155.1" transform="matrix(0.9904 -0.1385 0.1385 0.9904 -19.7309 52.6129)" class="st6" width="24.7" height="25.9"/>
					<g>
						<g id="Novo_símbolo_102_">
							<polygon class="st7" points="378.6,153.5 382.2,179.2 356,169.8 							"/>
						</g>
					</g>
				</g>
				<g>
					<rect x="358.9" y="193.8" class="st6" width="24.7" height="25.9"/>
					<g>
						<g id="Novo_símbolo_101_">
							<polygon class="st7" points="383.6,193.8 383.6,219.8 358.9,206.8 							"/>
						</g>
					</g>
				</g>
				<g>
					<rect x="358.9" y="230.3" class="st6" width="24.7" height="25.9"/>
					<g>
						<g id="Novo_símbolo_100_">
							<polygon class="st7" points="383.6,230.3 383.6,256.2 358.9,243.2 							"/>
						</g>
					</g>
				</g>
				<g>
					<rect x="358.9" y="266.7" class="st6" width="24.7" height="25.9"/>
					<g>
						<g id="Novo_símbolo_99_">
							<polygon class="st7" points="383.6,266.7 383.6,292.6 358.9,279.7 							"/>
						</g>
					</g>
				</g>
				<g>
					<rect x="358.9" y="303.1" class="st6" width="24.7" height="25.9"/>
					<g>
						<g id="Novo_símbolo_98_">
							<polygon class="st7" points="383.6,303.1 383.6,329.1 358.9,316.1 							"/>
						</g>
					</g>
				</g>
				<g>
					<rect x="358.9" y="339.6" class="st6" width="24.7" height="25.9"/>
					<g>
						<g id="Novo_símbolo_97_">
							<polygon class="st7" points="383.6,339.6 383.6,365.5 358.9,352.5 							"/>
						</g>
					</g>
				</g>
				<g>
					<rect x="338.8" y="393" class="st6" width="25.9" height="24.7"/>
					<g>
						<g id="Novo_símbolo_96_">
							<polygon class="st7" points="364.7,417.7 338.8,417.7 351.7,393 							"/>
						</g>
					</g>
				</g>
				<g>
					<rect x="302.3" y="393" class="st6" width="25.9" height="24.7"/>
					<g>
						<g id="Novo_símbolo_95_">
							<polygon class="st7" points="328.3,417.7 302.3,417.7 315.3,393 							"/>
						</g>
					</g>
				</g>
				<g>
					<rect x="265.9" y="393" class="st6" width="25.9" height="24.7"/>
					<g>
						<g id="Novo_símbolo_94_">
							<polygon class="st7" points="291.8,417.7 265.9,417.7 278.9,393 							"/>
						</g>
					</g>
				</g>
				<g>
					<rect x="229.5" y="393" class="st6" width="25.9" height="24.7"/>
					<g>
						<g id="Novo_símbolo_93_">
							<polygon class="st7" points="255.4,417.7 229.5,417.7 242.4,393 							"/>
						</g>
					</g>
				</g>
				<g>
					<rect x="193" y="393" class="st6" width="25.9" height="24.7"/>
					<g>
						<g id="Novo_símbolo_92_">
							<polygon class="st7" points="219,417.7 193,417.7 206,393 							"/>
						</g>
					</g>
				</g>
				<g>
					<rect x="156.6" y="393" class="st6" width="25.9" height="24.7"/>
					<g>
						<g id="Novo_símbolo_91_">
							<polygon class="st7" points="182.5,417.7 156.6,417.7 169.6,393 							"/>
						</g>
					</g>
				</g>
				<g>
					<rect x="120.2" y="393" class="st6" width="25.9" height="24.7"/>
					<g>
						<g id="Novo_símbolo_90_">
							<polygon class="st7" points="146.1,417.7 120.2,417.7 133.1,393 							"/>
						</g>
					</g>
				</g>
				<g>
					<rect x="83.7" y="393" class="st6" width="25.9" height="24.7"/>
					<g>
						<g id="Novo_símbolo_89_">
							<polygon class="st7" points="109.7,417.7 83.7,417.7 96.7,393 							"/>
						</g>
					</g>
				</g>
			</g>
		</g>
	</g>
</g>
<g style="opacity: 0"  id="cotas">
	<g id="cotas_10_">
		<text transform="matrix(1 0 0 1 4.5119 233.9495)" class="st7 st11 st12">A</text>
		<g>
			<g>
				<line class="st10" x1="36" y1="70.5" x2="36" y2="379.5"/>
				<g>
					<polygon class="st7" points="33.4,72.3 36,62.6 38.6,72.3 					"/>
				</g>
				<g>
					<polygon class="st7" points="33.4,377.7 36,387.4 38.6,377.7 					"/>
				</g>
			</g>
		</g>
	</g>
	<g id="cotas_9_">
		<text transform="matrix(1 0 0 1 411.1793 295.1903)" class="st7 st11 st12">C</text>
		<g>
			<g>
				<line class="st10" x1="396" y1="193" x2="396" y2="379.5"/>
				<g>
					<polygon class="st7" points="393.4,194.8 396,185.1 398.6,194.8 					"/>
				</g>
				<g>
					<polygon class="st7" points="393.4,377.7 396,387.4 398.6,377.7 					"/>
				</g>
			</g>
		</g>
	</g>
	<g id="cotas_8_">
		<text transform="matrix(1 0 0 1 214.328 470.0544)" class="st7 st11 st12">B</text>
		<g>
			<g>
				<line class="st10" x1="104.6" y1="437.9" x2="340.5" y2="437.9"/>
				<g>
					<polygon class="st7" points="106.4,440.5 96.7,437.9 106.4,435.3 					"/>
				</g>
				<g>
					<polygon class="st7" points="338.8,440.5 348.5,437.9 338.8,435.3 					"/>
				</g>
			</g>
		</g>
	</g>
</g>
</svg>
