<svg xmlns="http://www.w3.org/2000/svg" xmlns:xlink="http://www.w3.org/1999/xlink" viewBox="0 0 500 500">
	<defs>
		<style>
			.cls-1{stroke:#fff;stroke-width:3.26px;}.cls-1,.cls-16,.cls-19{stroke-miterlimit:10;}.cls-1,.cls-26{filter:url(#luminosity-invert);}.cls-2{mask:url(#mask);}.cls-10,.cls-11,.cls-12,.cls-19,.cls-3,.cls-4,.cls-5,.cls-6,.cls-7,.cls-8,.cls-9{fill:none;}.cls-10,.cls-11,.cls-12,.cls-3,.cls-4,.cls-5,.cls-6,.cls-7,.cls-8,.cls-9{stroke:#1d1e1c;stroke-linecap:round;stroke-dasharray:0
			21.18;}.cls-3{stroke-width:4.07px;}.cls-4{stroke-width:11.4px;}.cls-5{stroke-width:10.59px;}.cls-6{stroke-width:9.77px;}.cls-7{stroke-width:8.96px;}.cls-8{stroke-width:8.14px;}.cls-9{stroke-width:7.33px;}.cls-10{stroke-width:6.52px;}.cls-11{stroke-width:5.7px;}.cls-12{stroke-width:4.88px;}.cls-13{mask:url(#mask-2);}.cls-14{mask:url(#mask-3);}.cls-15{mask:url(#mask-4);}.cls-16{fill:#fff;stroke:#647073;stroke-width:5.85px;}.cls-17{fill:#d1e8ed;}.cls-18,.cls-25{fill:#647073;}.cls-19{stroke:#f4f3f4;stroke-width:3.9px;}.cls-20{fill:#f4f3f4;}.cls-21{mask:url(#mask-5);}.cls-22{fill:url(#Gradiente_sem_nome_61);}.cls-23{mask:url(#mask-6);}.cls-24{fill:url(#Gradiente_sem_nome_61-2);}.cls-25{font-size:153.53px;font-family:MrsEavesAllPetiteCapsOT,
			Mrs Eaves;}
		</style>
		<filter id="luminosity-invert" filterUnits="userSpaceOnUse" color-interpolation-filters="sRGB">
			<feColorMatrix values="-1 0 0 0 1 0 -1 0 0 1 0 0 -1 0 1 0 0 0 1 0"/>
		</filter>
		<mask id="mask" x="162.97" y="14.84" width="262.01" height="477.6" maskUnits="userSpaceOnUse">
			<path class="cls-1" d="M226.38,490.82H352l9-9V16.47H226.38Z"/>
		</mask>
		<mask id="mask-2" x="4.02" y="14.97" width="234.31" height="477.6" maskUnits="userSpaceOnUse">
			<path class="cls-1" d="M186.2,490.95H62.35l-9-9V16.6H186.2Z"/>
		</mask>
		<mask id="mask-3" x="370.64" y="14.84" width="199.64" height="477.6" maskUnits="userSpaceOnUse">
			<path class="cls-1" d="M434.05,490.82h125.6l9-9V16.47H434.05Z"/>
		</mask>
		<mask id="mask-4" x="184" y="14.97" width="262.01" height="477.6" maskUnits="userSpaceOnUse">
			<path class="cls-1" d="M393.87,490.95H270l-9-9V16.6H393.87Z"/>
		</mask>
		<mask id="mask-5" x="-23.67" y="17.18" width="448.65" height="476.3" maskUnits="userSpaceOnUse">
			<g class="cls-26">
				<g class="cls-2">
					<line class="cls-3" x1="422.94" y1="483.34" x2="422.94" y2="29.27"/>
					<line class="cls-4" x1="294.62" y1="461.88" x2="294.62" y2="29.27"/>
					<line class="cls-5" x1="308.88" y1="483.34" x2="308.88" y2="29.27"/>
					<line class="cls-6" x1="323.14" y1="461.88" x2="323.14" y2="29.27"/>
					<line class="cls-7" x1="337.4" y1="483.34" x2="337.4" y2="29.27"/>
					<line class="cls-8" x1="351.65" y1="461.88" x2="351.65" y2="29.27"/>
					<line class="cls-9" x1="365.91" y1="483.34" x2="365.91" y2="29.27"/>
					<line class="cls-10" x1="380.17" y1="461.88" x2="380.17" y2="29.27"/>
					<line class="cls-11" x1="394.43" y1="483.34" x2="394.43" y2="29.27"/>
					<line class="cls-12" x1="408.69" y1="461.88" x2="408.69" y2="29.27"/>
					<line class="cls-3" x1="165.01" y1="483.34" x2="165.01" y2="29.27"/>
					<line class="cls-4" x1="293.33" y1="461.88" x2="293.33" y2="29.27"/>
					<line class="cls-5" x1="279.07" y1="483.34" x2="279.07" y2="29.27"/>
					<line class="cls-6" x1="264.81" y1="461.88" x2="264.81" y2="29.27"/>
					<line class="cls-7" x1="250.55" y1="483.34" x2="250.55" y2="29.27"/>
					<line class="cls-8" x1="236.3" y1="461.88" x2="236.3" y2="29.27"/>
					<line class="cls-9" x1="222.04" y1="483.34" x2="222.04" y2="29.27"/>
					<line class="cls-10" x1="207.78" y1="461.88" x2="207.78" y2="29.27"/>
					<line class="cls-11" x1="193.52" y1="483.34" x2="193.52" y2="29.27"/>
					<line class="cls-12" x1="179.26" y1="461.88" x2="179.26" y2="29.27"/>
				</g>
				<g class="cls-13">
					<line class="cls-4" x1="106.68" y1="455.49" x2="106.68" y2="22.88"/>
					<line class="cls-5" x1="92.43" y1="476.96" x2="92.43" y2="22.88"/>
					<line class="cls-6" x1="78.17" y1="455.49" x2="78.17" y2="22.88"/>
					<line class="cls-7" x1="63.91" y1="476.96" x2="63.91" y2="22.88"/>
					<line class="cls-8" x1="49.65" y1="455.49" x2="49.65" y2="22.88"/>
					<line class="cls-9" x1="35.39" y1="476.96" x2="35.39" y2="22.88"/>
					<line class="cls-10" x1="21.13" y1="455.49" x2="21.13" y2="22.88"/>
					<line class="cls-11" x1="6.88" y1="476.96" x2="6.88" y2="22.88"/>
					<line class="cls-3" x1="236.3" y1="476.96" x2="236.3" y2="22.88"/>
					<line class="cls-4" x1="107.97" y1="455.49" x2="107.97" y2="22.88"/>
					<line class="cls-5" x1="122.23" y1="476.96" x2="122.23" y2="22.88"/>
					<line class="cls-6" x1="136.49" y1="455.49" x2="136.49" y2="22.88"/>
					<line class="cls-7" x1="150.75" y1="476.96" x2="150.75" y2="22.88"/>
					<line class="cls-8" x1="165.01" y1="455.49" x2="165.01" y2="22.88"/>
					<line class="cls-9" x1="179.27" y1="476.96" x2="179.27" y2="22.88"/>
					<line class="cls-10" x1="193.53" y1="455.49" x2="193.53" y2="22.88"/>
					<line class="cls-11" x1="207.78" y1="476.96" x2="207.78" y2="22.88"/>
					<line class="cls-12" x1="222.04" y1="455.49" x2="222.04" y2="22.88"/>
				</g>
			</g>
		</mask>
		<linearGradient id="Gradiente_sem_nome_61" x1="101.46" y1="256.31" x2="193.03" y2="256.31"
		                gradientUnits="userSpaceOnUse">
			<stop offset="0" stop-color="#2a4b9a" stop-opacity="0"/>
			<stop offset="0.5" stop-color="#e42320" stop-opacity="0.5"/>
			<stop offset="1" stop-color="#2a4b9a" stop-opacity="0"/>
		</linearGradient>
		<mask id="mask-6" x="184" y="17.18" width="448.65" height="476.3" maskUnits="userSpaceOnUse">
			<g class="cls-26">
				<g class="cls-14">
					<line class="cls-4" x1="502.29" y1="461.88" x2="502.29" y2="29.27"/>
					<line class="cls-3" x1="372.68" y1="483.34" x2="372.68" y2="29.27"/>
					<line class="cls-4" x1="501" y1="461.88" x2="501" y2="29.27"/>
					<line class="cls-5" x1="486.74" y1="483.34" x2="486.74" y2="29.27"/>
					<line class="cls-6" x1="472.48" y1="461.88" x2="472.48" y2="29.27"/>
					<line class="cls-7" x1="458.23" y1="483.34" x2="458.23" y2="29.27"/>
					<line class="cls-8" x1="443.97" y1="461.88" x2="443.97" y2="29.27"/>
					<line class="cls-9" x1="429.71" y1="483.34" x2="429.71" y2="29.27"/>
					<line class="cls-10" x1="415.45" y1="461.88" x2="415.45" y2="29.27"/>
					<line class="cls-11" x1="401.19" y1="483.34" x2="401.19" y2="29.27"/>
					<line class="cls-12" x1="386.94" y1="461.88" x2="386.94" y2="29.27"/>
				</g>
				<g class="cls-15">
					<line class="cls-3" x1="186.03" y1="476.96" x2="186.03" y2="22.88"/>
					<line class="cls-4" x1="314.36" y1="455.49" x2="314.36" y2="22.88"/>
					<line class="cls-5" x1="300.1" y1="476.96" x2="300.1" y2="22.88"/>
					<line class="cls-6" x1="285.84" y1="455.49" x2="285.84" y2="22.88"/>
					<line class="cls-7" x1="271.58" y1="476.96" x2="271.58" y2="22.88"/>
					<line class="cls-8" x1="257.32" y1="455.49" x2="257.32" y2="22.88"/>
					<line class="cls-9" x1="243.06" y1="476.96" x2="243.06" y2="22.88"/>
					<line class="cls-10" x1="228.8" y1="455.49" x2="228.8" y2="22.88"/>
					<line class="cls-11" x1="214.55" y1="476.96" x2="214.55" y2="22.88"/>
					<line class="cls-12" x1="200.29" y1="455.49" x2="200.29" y2="22.88"/>
					<line class="cls-3" x1="443.97" y1="476.96" x2="443.97" y2="22.88"/>
					<line class="cls-4" x1="315.65" y1="455.49" x2="315.65" y2="22.88"/>
					<line class="cls-5" x1="329.9" y1="476.96" x2="329.9" y2="22.88"/>
					<line class="cls-6" x1="344.16" y1="455.49" x2="344.16" y2="22.88"/>
					<line class="cls-7" x1="358.42" y1="476.96" x2="358.42" y2="22.88"/>
					<line class="cls-8" x1="372.68" y1="455.49" x2="372.68" y2="22.88"/>
					<line class="cls-9" x1="386.94" y1="476.96" x2="386.94" y2="22.88"/>
					<line class="cls-10" x1="401.2" y1="455.49" x2="401.2" y2="22.88"/>
					<line class="cls-11" x1="415.45" y1="476.96" x2="415.45" y2="22.88"/>
					<line class="cls-12" x1="429.71" y1="455.49" x2="429.71" y2="22.88"/>
				</g>
			</g>
		</mask>
		<linearGradient id="Gradiente_sem_nome_61-2" x1="309.13" y1="256.31" x2="400.7" y2="256.31"
		                xlink:href="#Gradiente_sem_nome_61"/>
	</defs>
	<title>tipoDeVidroEspc0</title>
	<g id="Layer_1" data-name="Layer 1">
		<path class="cls-16" d="M188.71,487H110.46l-9-9V25.55h87.25Z"/>
		<path class="cls-16" d="M311.29,487h78.25l9-9V25.55H311.29Z"/>
		<path class="cls-17"
		      d="M103.64,465.7,102.11,28.33l15.62,2,2.12,384.29c.26,24.92,23,58.87,49,69.67H122.3A18.66,18.66,0,0,1,103.64,465.7Z"/>
		<path class="cls-17" d="M312.93,484.21l-1.64-456,15.62,2L329,414.62c.26,24.92,23,58.87,49,69.67H313Z"/>
		<rect class="cls-18" x="188.71" y="383.79" width="122.59" height="103.21"/>
		<path class="cls-19" d="M285.52,458.9H217.89l-13.5-13.5V391.62H299v53.81Z"/>
		<polygon class="cls-20"
		         points="233.97 451.1 212.2 429.33 212.2 399.4 291.22 399.4 291.22 429.33 269.45 451.1 233.97 451.1"/>
	</g>
	<g style="opacity: 0" id="tratmentoTermico">
		<g class="cls-21">
			<g id="tratamentoTermicoLayer">
				<path class="cls-22" d="M193,493.48H110.46l-9-9V19.13H193Z"/>
			</g>
		</g>
		<g class="cls-23">
			<g id="tratamentoTermicoLayer-2" data-name="tratamentoTermicoLayer">
				<path class="cls-24" d="M400.7,493.48H318.13l-9-9V19.13H400.7Z"/>
			</g>
		</g>
	</g>
	<g style="opacity: 0" id="numeros">
		<text class="cls-25" transform="translate(121.88 282.02)">1</text>
		<text class="cls-25" transform="translate(332.36 282.02)">2</text>
	</g>
</svg>