<?xml version="1.0" encoding="utf-8"?>
<!-- Generator: Adobe Illustrator 21.1.0, SVG Export Plug-In . SVG Version: 6.00 Build 0)  -->
<svg version="1.1" id="Camada_1" xmlns="http://www.w3.org/2000/svg" xmlns:xlink="http://www.w3.org/1999/xlink" x="0px" y="0px"
	 viewBox="0 0 450 450" style="enable-background:new 0 0 450 450;" xml:space="preserve">
<style type="text/css">
	.st0{fill:none;stroke:#BAD2D8;stroke-width:2;stroke-miterlimit:10;}
	.st1{fill:#FFFFFF;stroke:#687477;stroke-width:3;stroke-miterlimit:10;}
	.st2{fill:#D1E9ED;}
	.st3{fill:#687477;}
	.st4{fill:#FFFFFF;stroke:#687477;stroke-width:13.4039;stroke-miterlimit:10;}
	.st5{fill:#FFFFFF;stroke:#687477;stroke-width:12.9686;stroke-miterlimit:10;}
	.st6{fill:#FFFFFF;stroke:#687477;stroke-width:12.8259;stroke-miterlimit:10;}
	.st7{fill:#FFFFFF;stroke:#687477;stroke-width:13.4839;stroke-miterlimit:10;}
	.st8{fill:#FFFFFF;stroke:#687477;stroke-width:11.5855;stroke-miterlimit:10;}
	.st9{fill:none;}
	.st10{fill:#FFFFFF;}
</style>
<symbol  id="Novo_símbolo_1" viewBox="-17.2 -10.5 34.3 21">
	<line class="st0" x1="5.4" y1="6.5" x2="-5.4" y2="-6.5"/>
	<line class="st0" x1="-0.3" y1="9.8" x2="-16.4" y2="-9.5"/>
	<line class="st0" x1="16.4" y1="9.5" x2="0.3" y2="-9.8"/>
</symbol>
<g>
	<circle class="st5" cx="225" cy="230" r="202"/>
	<g>
		<path class="st2" d="M64.1,230c0-108.5,53.6-197.2,160.9-202c-3-0.1,8.5,0,5.5,0c-111.6,0-202,90.4-202,202
			c0,111.6,90.4,202,202,202c3.1,0-8.5,0.1-5.5,0C117.7,427.1,64.1,338.4,64.1,230z"/>
	</g>
	
		<use xlink:href="#Novo_símbolo_1"  width="34.3" height="21" x="-17.2" y="-10.5" transform="matrix(5.1351 0 0 -7.0057 239.0366 229.0575)" style="overflow:visible;"/>
</g>
<g id="borda_1_">
	<g>
		<g>
			<g>
				
					<rect x="429.5" y="155.7" transform="matrix(0.9739 -0.227 0.227 0.9739 -27.524 105.6092)" class="st9" width="31.9" height="33.5"/>
				<g>
					<g id="Novo_símbolo_290_">
						<polygon class="st3" points="457.2,152.6 464.8,185.2 429.9,176.1 						"/>
					</g>
				</g>
			</g>
			<g>
				
					<rect x="406.8" y="99.1" transform="matrix(0.8439 -0.5365 0.5365 0.8439 3.8549 244.8863)" class="st9" width="31.9" height="33.5"/>
				<g>
					<g id="Novo_símbolo_289_">
						<polygon class="st3" points="427.2,93.1 445.2,121.4 409.3,124.4 						"/>
					</g>
				</g>
			</g>
			<g>
				
					<rect x="372.1" y="52.4" transform="matrix(0.7071 -0.7071 0.7071 0.7071 64.7243 294.607)" class="st9" width="31.9" height="33.5"/>
				<g>
					<g id="Novo_símbolo_288_">
						<polygon class="st3" points="387.4,46.1 411.1,69.7 376.7,80.4 						"/>
					</g>
				</g>
			</g>
			<g>
				
					<rect x="326.8" y="16" transform="matrix(0.5365 -0.8439 0.8439 0.5365 131.2491 304.3759)" class="st9" width="31.9" height="33.5"/>
				<g>
					<g id="Novo_símbolo_287_">
						<polygon class="st3" points="337.1,10.3 365.4,28.2 334.2,46.1 						"/>
					</g>
				</g>
			</g>
			<g>
				
					<rect x="273.7" y="-8" transform="matrix(0.3366 -0.9417 0.9417 0.3366 183.9529 278.5418)" class="st9" width="31.9" height="33.5"/>
				<g>
					<g id="Novo_símbolo_286_">
						<polygon class="st3" points="279.2,-11.9 310.8,-0.6 284.3,23.7 						"/>
					</g>
				</g>
			</g>
			<g>
				
					<rect x="216.1" y="-17.7" transform="matrix(0.1144 -0.9934 0.9934 0.1144 206.4664 229.6279)" class="st9" width="31.9" height="33.5"/>
				<g>
					<g id="Novo_símbolo_285_">
						<polygon class="st3" points="217.2,-18.7 250.5,-14.9 230.2,14.8 						"/>
					</g>
				</g>
			</g>
			<g>
				
					<rect x="151.8" y="-10.1" transform="matrix(0.9417 -0.3366 0.3366 0.9417 7.8787 57.0557)" class="st9" width="33.5" height="31.9"/>
				<g>
					<g id="Novo_símbolo_284_">
						<polygon class="st3" points="147.4,-3.6 178.9,-14.8 173.9,20.8 						"/>
					</g>
				</g>
			</g>
			<g>
				
					<rect x="97.9" y="12.1" transform="matrix(0.8439 -0.5365 0.5365 0.8439 2.8438 65.8631)" class="st9" width="33.5" height="31.9"/>
				<g>
					<g id="Novo_símbolo_283_">
						<polygon class="st3" points="91.9,23.6 120.2,5.6 123.1,41.5 						"/>
					</g>
				</g>
			</g>
			<g>
				
					<rect x="51.4" y="47.1" transform="matrix(0.7071 -0.7071 0.7071 0.7071 -24.6137 66.654)" class="st9" width="33.5" height="31.9"/>
				<g>
					<g id="Novo_símbolo_282_">
						<polygon class="st3" points="45,63.6 68.7,39.9 79.4,74.3 						"/>
					</g>
				</g>
			</g>
			<g>
				
					<rect x="15.2" y="92.6" transform="matrix(0.5365 -0.8439 0.8439 0.5365 -76.762 77.2261)" class="st9" width="33.5" height="31.9"/>
				<g>
					<g id="Novo_símbolo_281_">
						<polygon class="st3" points="9.5,114.1 27.5,85.8 45.4,117 						"/>
					</g>
				</g>
			</g>
			<g>
				
					<rect x="-8.5" y="145.8" transform="matrix(0.3366 -0.9417 0.9417 0.3366 -146.8106 115.0379)" class="st9" width="33.5" height="31.9"/>
				<g>
					<g id="Novo_símbolo_280_">
						<polygon class="st3" points="-12.4,172.1 -1.1,140.6 23.2,167.1 						"/>
					</g>
				</g>
			</g>
			<g>
				
					<rect x="-17.9" y="203.5" transform="matrix(0.1144 -0.9934 0.9934 0.1144 -218.9902 193.149)" class="st9" width="33.5" height="31.9"/>
				<g>
					<g id="Novo_símbolo_279_">
						<polygon class="st3" points="-18.9,234.2 -15.1,200.9 14.7,221.2 						"/>
					</g>
				</g>
			</g>
			<g>
				
					<rect x="-9.6" y="266.1" transform="matrix(0.9417 -0.3366 0.3366 0.9417 -94.8286 18.6175)" class="st9" width="31.9" height="33.5"/>
				<g>
					<g id="Novo_símbolo_278_">
						<polygon class="st3" points="-3.1,304 -14.4,272.4 21.3,277.5 						"/>
					</g>
				</g>
			</g>
			<g>
				
					<rect x="12.9" y="319.9" transform="matrix(0.8439 -0.5365 0.5365 0.8439 -176.1062 68.0146)" class="st9" width="31.9" height="33.5"/>
				<g>
					<g id="Novo_símbolo_277_">
						<polygon class="st3" points="24.4,359.3 6.4,331 42.3,328.1 						"/>
					</g>
				</g>
			</g>
			<g>
				
					<rect x="48.1" y="366.1" transform="matrix(0.7071 -0.7071 0.7071 0.7071 -251.9677 157.4384)" class="st9" width="31.9" height="33.5"/>
				<g>
					<g id="Novo_símbolo_276_">
						<polygon class="st3" points="64.6,406 41,382.3 75.3,371.6 						"/>
					</g>
				</g>
			</g>
			<g>
				
					<rect x="93.8" y="402.1" transform="matrix(0.5365 -0.8439 0.8439 0.5365 -302.6114 286.716)" class="st9" width="31.9" height="33.5"/>
				<g>
					<g id="Novo_símbolo_275_">
						<polygon class="st3" points="115.3,441.3 87,423.3 118.3,405.4 						"/>
					</g>
				</g>
			</g>
			<g>
				
					<rect x="147.1" y="425.5" transform="matrix(0.3366 -0.9417 0.9417 0.3366 -308.264 446.9616)" class="st9" width="31.9" height="33.5"/>
				<g>
					<g id="Novo_símbolo_274_">
						<polygon class="st3" points="173.5,462.9 141.9,451.6 168.4,427.2 						"/>
					</g>
				</g>
			</g>
			<g>
				
					<rect x="204.9" y="434.6" transform="matrix(0.1144 -0.9934 0.9934 0.1144 -252.7872 619.0716)" class="st9" width="31.9" height="33.5"/>
				<g>
					<g id="Novo_símbolo_273_">
						<polygon class="st3" points="235.7,469.1 202.4,465.2 222.7,435.5 						"/>
					</g>
				</g>
			</g>
			<g>
				
					<rect x="267.5" y="427.3" transform="matrix(0.9417 -0.3366 0.3366 0.9417 -132.5935 121.5115)" class="st9" width="33.5" height="31.9"/>
				<g>
					<g id="Novo_símbolo_272_">
						<polygon class="st3" points="305.3,452.6 273.8,463.9 278.8,428.2 						"/>
					</g>
				</g>
			</g>
			<g>
				
					<rect x="321.1" y="404.5" transform="matrix(0.8439 -0.5365 0.5365 0.8439 -172.8141 246.8915)" class="st9" width="33.5" height="31.9"/>
				<g>
					<g id="Novo_símbolo_271_">
						<polygon class="st3" points="360.5,424.9 332.3,442.8 329.3,407 						"/>
					</g>
				</g>
			</g>
			<g>
				
					<rect x="367.1" y="369" transform="matrix(0.7071 -0.7071 0.7071 0.7071 -159.7371 384.1932)" class="st9" width="33.5" height="31.9"/>
				<g>
					<g id="Novo_símbolo_270_">
						<polygon class="st3" points="407,384.3 383.3,408 372.6,373.6 						"/>
					</g>
				</g>
			</g>
			<g>
				
					<rect x="402.9" y="323.1" transform="matrix(0.5365 -0.8439 0.8439 0.5365 -91.6428 511.265)" class="st9" width="33.5" height="31.9"/>
				<g>
					<g id="Novo_símbolo_269_">
						<polygon class="st3" points="442.1,333.5 424.1,361.7 406.2,330.5 						"/>
					</g>
				</g>
			</g>
			<g>
				
					<rect x="426" y="269.6" transform="matrix(0.3366 -0.9417 0.9417 0.3366 24.82 606.3645)" class="st9" width="33.5" height="31.9"/>
				<g>
					<g id="Novo_símbolo_268_">
						<polygon class="st3" points="463.4,275.2 452.1,306.7 427.7,280.2 						"/>
					</g>
				</g>
			</g>
			<g>
				
					<rect x="434.7" y="211.8" transform="matrix(0.1144 -0.9934 0.9934 0.1144 173.6012 650.1867)" class="st9" width="33.5" height="31.9"/>
				<g>
					<g id="Novo_símbolo_240_">
						<polygon class="st3" points="469.2,212.9 465.4,246.2 435.7,225.9 						"/>
					</g>
				</g>
			</g>
		</g>
	</g>
</g>
</svg>
