<svg id="Layer_1" data-name="Layer 1" xmlns="http://www.w3.org/2000/svg" viewBox="0 0 500 500"><defs><style>.cls-1{fill:#fff;stroke:#647073;stroke-width:9.18px;}.cls-1,.cls-4{stroke-miterlimit:10;}.cls-2{fill:#d1e8ed;}.cls-3{fill:#647073;}.cls-4{fill:none;stroke:#f4f3f4;stroke-width:6.12px;}.cls-5{fill:#f4f3f4;}</style></defs><path class="cls-1" d="M153.84,487H26l-9-9V41.32H153.84Z"/><path class="cls-1" d="M346.16,487H474l9-9V41.32H346.16Z"/><path class="cls-2" d="M20.38,453.59,18,45.63l24.5,3.13L45.81,373.4c.4,39.1,36.09,92.36,76.91,109.3H49.65A29.27,29.27,0,0,1,20.38,453.59Z"/><path class="cls-2" d="M348.73,482.64l-2.57-437,24.5,3.13L374,373.4c.4,39.1,36.09,92.36,76.91,109.3H348.79A.06.06,0,0,1,348.73,482.64Z"/><rect class="cls-3" x="153.84" y="325.08" width="192.32" height="161.91"/><path class="cls-4" d="M313.41,442.93H191.95l-13.5-13.5v-92.1H326.91v92.1Z"/><polygon class="cls-5" points="224.84 430.69 190.69 396.54 190.69 349.57 314.66 349.57 314.66 396.54 280.51 430.69 224.84 430.69"/></svg>