<svg id="Layer_1" data-name="Layer 1" xmlns="http://www.w3.org/2000/svg" viewBox="0 0 500 500"><defs><style>.cls-1{fill:#fff;stroke:#647073;stroke-miterlimit:10;stroke-width:9.18px;}.cls-2{fill:#d1e8ed;}.cls-3{fill:#647073;}</style></defs><path class="cls-1" d="M238.52,487H110.64l-9-9V41.32H238.52Z"/><path class="cls-1" d="M261.48,487H389.36l9-9V41.32H261.48Z"/><path class="cls-2" d="M105.06,453.59l-2.4-408,24.5,3.13,3.33,324.64c.4,39.1,36.09,92.36,76.91,109.3H134.33A29.27,29.27,0,0,1,105.06,453.59Z"/><path class="cls-2" d="M264,482.64l-2.57-437L286,48.76l3.33,324.64c.4,39.1,36.09,92.36,76.91,109.3H264.11A.06.06,0,0,1,264,482.64Z"/><rect class="cls-3" x="238.52" y="41.32" width="22.96" height="445.67"/></svg>